<svg width="20" height="18" viewBox="0 0 20 18" fill="none" xmlns="http://www.w3.org/2000/svg">
<path d="M14.2449 4.64474C14.2449 3.41288 13.7555 2.23147 12.8845 1.36041C12.0134 0.489355 10.832 0 9.60014 0C8.36828 0 7.18688 0.489355 6.31582 1.36041C5.44476 2.23147 4.95541 3.41288 4.95541 4.64474C5.21084 10.8066 13.9905 10.8049 14.2449 4.64474ZM11.0727 6.60487L9.60014 5.13229L8.12756 6.60522C8.06224 6.66656 7.97562 6.70008 7.88602 6.69867C7.79643 6.69727 7.71089 6.66105 7.64753 6.59769C7.58417 6.53433 7.54795 6.4488 7.54655 6.3592C7.54515 6.26961 7.57866 6.18298 7.64001 6.11767L9.1126 4.64474L7.64001 3.17215C7.608 3.14014 7.5826 3.10213 7.56528 3.06031C7.54795 3.01848 7.53903 2.97365 7.53903 2.92838C7.53903 2.8831 7.54795 2.83827 7.56528 2.79645C7.5826 2.75462 7.608 2.71661 7.64001 2.6846C7.67202 2.65259 7.71003 2.62719 7.75185 2.60987C7.79368 2.59254 7.83851 2.58363 7.88378 2.58363C7.92906 2.58363 7.97389 2.59254 8.01571 2.60987C8.05754 2.62719 8.09554 2.65259 8.12756 2.6846L9.60014 4.15753L11.0727 2.6846C11.1374 2.61995 11.2251 2.58363 11.3165 2.58363C11.4079 2.58363 11.4956 2.61995 11.5603 2.6846C11.6249 2.74925 11.6613 2.83694 11.6613 2.92838C11.6613 3.01981 11.6249 3.1075 11.5603 3.17215L10.0877 4.64474L11.5603 6.11767C11.6206 6.18317 11.6532 6.26945 11.6513 6.35846C11.6495 6.44747 11.6133 6.53231 11.5503 6.59524C11.4873 6.65817 11.4025 6.69431 11.3135 6.69611C11.2244 6.6979 11.1382 6.66521 11.0727 6.60487ZM2.31229 9.22467C-1.79758 11.6576 -0.0627065 17.8682 4.63963 17.8922C8.14333 17.9436 10.4604 13.9517 8.65625 10.9235C8.03563 9.86202 7.0213 9.08816 5.83352 8.77002C4.64575 8.45187 3.38042 8.61513 2.31229 9.22433V9.22467ZM8.23384 15.1562C8.23312 15.5147 8.09038 15.8583 7.83688 16.1118C7.58338 16.3653 7.23976 16.508 6.88126 16.5088H2.38429C2.02579 16.508 1.68217 16.3653 1.42867 16.1118C1.17517 15.8583 1.03243 15.5147 1.03171 15.1562V14.576C1.03088 14.1359 1.16549 13.7061 1.41727 13.345C1.66905 12.9839 2.02581 12.709 2.43915 12.5576C2.30803 12.2339 2.25017 11.8851 2.26972 11.5363C2.28926 11.1876 2.38574 10.8474 2.55222 10.5403C2.7187 10.2333 2.95106 9.96681 3.23265 9.7601C3.51423 9.55339 3.83807 9.41155 4.18093 9.34474C4.5238 9.27793 4.87719 9.28781 5.21579 9.37367C5.55439 9.45953 5.86979 9.61924 6.13939 9.84135C6.40899 10.0635 6.62611 10.3425 6.77518 10.6584C6.92424 10.9743 7.00157 11.3193 7.0016 11.6686C7.00239 11.9725 6.94284 12.2735 6.8264 12.5542C7.24032 12.7058 7.59749 12.9811 7.84933 13.3429C8.10116 13.7047 8.23542 14.1353 8.23384 14.576V15.1562Z" fill="#C10007"/>
<path d="M16.8889 9.2243C13.8638 7.41742 9.87054 9.73687 9.92368 13.2409C9.84962 15.6773 12.0638 17.9597 14.5616 17.8922C19.2639 17.8678 20.9988 11.6572 16.8889 9.2243ZM16.8169 16.5087H12.3199C11.9614 16.508 11.6178 16.3653 11.3643 16.1118C11.1108 15.8583 10.9681 15.5146 10.9673 15.1561V14.576C10.9658 14.1352 11.1 13.7047 11.3519 13.3429C11.6037 12.9811 11.9609 12.7057 12.3748 12.5542C12.3174 12.4184 12.2748 12.2767 12.2479 12.1318C12.1751 11.7701 12.1879 11.3965 12.2852 11.0407C12.3825 10.6849 12.5617 10.3568 12.8085 10.0826C13.0552 9.80838 13.3626 9.59568 13.7062 9.46148C14.0498 9.32728 14.4201 9.27531 14.7873 9.3097C15.1546 9.34409 15.5087 9.4639 15.8214 9.65956C16.1341 9.85522 16.3968 10.1213 16.5883 10.4365C16.7798 10.7518 16.895 11.1075 16.9246 11.4752C16.9541 11.8428 16.8973 12.2124 16.7586 12.5542C17.1729 12.7055 17.5306 12.9808 17.783 13.3425C18.0354 13.7042 18.1704 14.1349 18.1695 14.576V15.1561C18.1688 15.5146 18.026 15.8583 17.7725 16.1118C17.519 16.3653 17.1754 16.508 16.8169 16.5087Z" fill="#C10007"/>
<path d="M16.4034 13.1582C16.1806 13.4299 15.9003 13.6488 15.5827 13.7991C15.2652 13.9493 14.9182 14.0273 14.5668 14.0273C14.2155 14.0273 13.8685 13.9493 13.5509 13.7991C13.2334 13.6488 12.9531 13.4299 12.7303 13.1582C12.42 13.2436 12.1464 13.4287 11.9517 13.6848C11.7569 13.941 11.6517 14.2541 11.6523 14.5759V15.1561C11.6524 15.3327 11.7227 15.5021 11.8476 15.627C11.9725 15.7519 12.1419 15.8221 12.3185 15.8222H16.8155C16.9921 15.8221 17.1614 15.7518 17.2862 15.6269C17.4111 15.502 17.4812 15.3326 17.4813 15.1561V14.5759C17.4809 14.2544 17.3754 13.9418 17.1808 13.6858C16.9861 13.4298 16.7131 13.2445 16.4034 13.1582Z" fill="#C10007"/>
<path d="M16.2499 11.6689C16.1786 9.44613 12.957 9.44648 12.8857 11.6689C12.9612 13.8896 16.1738 13.891 16.2499 11.6689ZM6.54521 13.1826L6.4732 13.1586C6.25006 13.4303 5.96946 13.6492 5.65161 13.7994C5.33375 13.9497 4.98654 14.0276 4.63495 14.0276C4.28337 14.0276 3.93616 13.9497 3.6183 13.7994C3.30045 13.6492 3.01985 13.4303 2.79671 13.1586C2.48695 13.245 2.21394 13.4303 2.01932 13.6862C1.82469 13.9422 1.71914 14.2548 1.71875 14.5764V15.1565C1.71884 15.3331 1.78901 15.5024 1.91385 15.6273C2.03869 15.7522 2.20799 15.8225 2.38459 15.8227H6.88155C7.05821 15.8226 7.2276 15.7524 7.35251 15.6274C7.47742 15.5025 7.54764 15.3331 7.54773 15.1565V14.5764C7.54886 14.268 7.45252 13.9672 7.27247 13.7169C7.09242 13.4666 6.83788 13.2796 6.54521 13.1826Z" fill="#C10007"/>
<path d="M6.31728 11.6689C6.24596 9.44613 3.02444 9.44648 2.95312 11.6689C2.95313 12.115 3.13034 12.5429 3.44579 12.8583C3.76124 13.1738 4.18909 13.351 4.6352 13.351C5.08131 13.351 5.50916 13.1738 5.82461 12.8583C6.14006 12.5429 6.31728 12.115 6.31728 11.6689Z" fill="#C10007"/>
</svg>
