<svg width="24" height="24" viewBox="0 0 24 24" fill="none" xmlns="http://www.w3.org/2000/svg">
<path d="M1.50587 1.50587H14.5606V0H0V20.3849H1.50587V1.50587ZM18.8797 13.7578C16.0514 13.7578 13.7585 16.0506 13.7585 18.8789C13.7585 21.7072 16.0514 24 18.8797 24C21.708 24 24.0008 21.7072 24.0008 18.8789C24.0008 16.0506 21.708 13.7578 18.8797 13.7578ZM18.1142 21.0774L15.9839 18.7288L17.0255 17.7841L18.208 19.0878L20.7807 16.7391L21.7288 17.7777L18.1142 21.0774Z" fill="#F59E0B"/>
<path d="M2.91016 2.91211V23.297H14.0732C13.3639 22.5271 12.8586 21.6151 12.5857 20.6268H5.54609V16.3084H12.8744C13.1975 15.5542 13.6645 14.8609 14.2622 14.2633C15.1564 13.3691 16.2644 12.7666 17.4708 12.5029V2.91211H2.91016ZM8.20078 13.4333V14.5606H6.79452V13.4502C5.92049 13.1718 5.28551 12.3525 5.28551 11.3873H6.69177C6.69177 11.8055 7.03195 12.1457 7.45007 12.1457H7.491C7.92365 12.1457 8.27564 11.7937 8.27564 11.361C8.27564 10.9284 7.92365 10.5764 7.491 10.5764H7.4646C6.25654 10.5764 5.2737 9.59357 5.2737 8.3855C5.2737 7.41106 5.91327 6.58357 6.79457 6.29974V5.18584H8.20083V6.31943C9.05227 6.62046 9.66413 7.43304 9.66413 8.3863H8.25787C8.25787 7.95312 7.90547 7.60071 7.47229 7.60071H7.4646C7.03195 7.60071 6.67996 7.9527 6.67996 8.38536C6.67996 8.81802 7.03195 9.17005 7.4646 9.17005H7.491C8.69907 9.17005 9.6819 10.1529 9.6819 11.361C9.6819 12.3207 9.06141 13.1377 8.20078 13.4333ZM15.193 12.3516H11.3988V10.9454H15.193V12.3516ZM15.193 9.43949H11.3988V8.03323H15.193V9.43949ZM15.193 6.52736H11.3988V5.12111H15.193V6.52736Z" fill="#F59E0B"/>
<path d="M6.95312 17.7148V19.2207H12.36C12.3339 18.7168 12.3655 18.2116 12.4543 17.7148H6.95312Z" fill="#F59E0B"/>
</svg>
