<svg width="10" height="12" viewBox="0 0 10 12" fill="none" xmlns="http://www.w3.org/2000/svg">
<path d="M8.91759 1.34486C8.73469 1.1587 8.49143 1.05615 8.23263 1.05615H7.80304V1.49365C7.80304 1.97613 7.41699 2.36865 6.94245 2.36865H3.06984C2.5953 2.36865 2.20925 1.97613 2.20925 1.49365V1.05615H1.77824C1.24499 1.05615 0.81069 1.49724 0.810087 2.03943L0.800782 10.6144C0.80048 10.8776 0.901065 11.125 1.08395 11.3112C1.26687 11.4974 1.51013 11.5999 1.76894 11.5999H8.2233C8.75655 11.5999 9.19087 11.1588 9.19145 10.6166L9.20078 2.04162C9.20108 1.77849 9.1005 1.53104 8.91759 1.34486ZM5.1105 4.3374H7.40333C7.58156 4.3374 7.72604 4.48432 7.72604 4.66553C7.72604 4.84674 7.58156 4.99365 7.40333 4.99365H5.1105C4.93227 4.99365 4.78779 4.84674 4.78779 4.66553C4.78779 4.48432 4.93227 4.3374 5.1105 4.3374ZM5.1105 6.5249H7.40333C7.58156 6.5249 7.72604 6.67182 7.72604 6.85303C7.72604 7.03424 7.58156 7.18115 7.40333 7.18115H5.1105C4.93227 7.18115 4.78779 7.03424 4.78779 6.85303C4.78779 6.67182 4.93227 6.5249 5.1105 6.5249ZM5.1105 8.7124H7.41255C7.59078 8.7124 7.73526 8.85932 7.73526 9.04053C7.73526 9.22174 7.59078 9.36865 7.41255 9.36865H5.1105C4.93227 9.36865 4.78779 9.22174 4.78779 9.04053C4.78779 8.85932 4.93227 8.7124 5.1105 8.7124ZM2.36083 4.35035C2.48688 4.22221 2.69119 4.22221 2.81723 4.35035L2.99271 4.52879L3.73695 3.77209C3.86299 3.64397 4.0673 3.64392 4.19333 3.77209C4.31935 3.90021 4.31935 4.10798 4.19333 4.23612L3.22089 5.22483C3.19094 5.25529 3.15536 5.27946 3.11621 5.29595C3.07705 5.31245 3.03508 5.32093 2.99269 5.32093C2.9503 5.32093 2.90832 5.31245 2.86917 5.29595C2.83001 5.27946 2.79444 5.25529 2.76449 5.22483L2.36081 4.81437C2.23479 4.68624 2.23479 4.47847 2.36083 4.35035ZM2.36083 6.70491C2.48688 6.57677 2.69119 6.57677 2.81723 6.70491L2.99271 6.88332L3.73695 6.12662C3.86297 5.9985 4.0673 5.9985 4.19333 6.12662C4.31935 6.25475 4.31935 6.46252 4.19333 6.59066L3.22089 7.57939C3.19093 7.60985 3.15536 7.63401 3.1162 7.6505C3.07705 7.66699 3.03507 7.67547 2.99269 7.67547C2.9503 7.67547 2.90833 7.66699 2.86917 7.6505C2.83001 7.63401 2.79444 7.60985 2.76449 7.57939L2.36081 7.16892C2.23479 7.0408 2.23479 6.83306 2.36083 6.70491ZM2.36083 8.89241C2.48688 8.76427 2.69119 8.76427 2.81723 8.89241L2.99271 9.07082L3.73695 8.31412C3.86297 8.186 4.0673 8.186 4.19333 8.31412C4.31935 8.44225 4.31935 8.65002 4.19333 8.77816L3.22089 9.76689C3.19093 9.79735 3.15536 9.82151 3.1162 9.838C3.07705 9.85449 3.03507 9.86298 2.99269 9.86298C2.9503 9.86298 2.90833 9.85449 2.86917 9.838C2.83001 9.82151 2.79444 9.79735 2.76449 9.76689L2.36081 9.35643C2.23479 9.2283 2.23479 9.02056 2.36083 8.89241Z" fill="#1E293B"/>
<path d="M2.85547 1.49365C2.85547 1.61447 2.95179 1.7124 3.07062 1.7124H6.94323C7.06206 1.7124 7.15838 1.61447 7.15838 1.49365V0.618652C7.15838 0.497837 7.06206 0.399902 6.94323 0.399902H3.07062C2.95179 0.399902 2.85547 0.497837 2.85547 0.618652V1.49365Z" fill="black"/>
</svg>
