<svg width="12" height="16" viewBox="0 0 12 16" fill="none" xmlns="http://www.w3.org/2000/svg">
<path d="M11.5954 1.34994C11.3342 1.084 10.9866 0.9375 10.6169 0.9375H10.0032V1.5625C10.0032 2.25175 9.45172 2.8125 8.77381 2.8125H3.24151C2.5636 2.8125 2.01209 2.25175 2.01209 1.5625V0.9375H1.39637C0.634586 0.9375 0.0141548 1.56762 0.0132932 2.34219L9.65732e-07 14.5922C-0.000429803 14.9681 0.143263 15.3216 0.404524 15.5876C0.665847 15.8535 1.01335 16 1.38308 16H10.6036C11.3654 16 11.9858 15.3699 11.9867 14.5953L12 2.34531C12.0004 1.96941 11.8567 1.61591 11.5954 1.34994ZM6.15674 5.625H9.43221C9.68683 5.625 9.89323 5.83488 9.89323 6.09375C9.89323 6.35262 9.68683 6.5625 9.43221 6.5625H6.15674C5.90212 6.5625 5.69572 6.35262 5.69572 6.09375C5.69572 5.83488 5.90212 5.625 6.15674 5.625ZM6.15674 8.75H9.43221C9.68683 8.75 9.89323 8.95988 9.89323 9.21875C9.89323 9.47762 9.68683 9.6875 9.43221 9.6875H6.15674C5.90212 9.6875 5.69572 9.47762 5.69572 9.21875C5.69572 8.95988 5.90212 8.75 6.15674 8.75ZM6.15674 11.875H9.44538C9.7 11.875 9.9064 12.0849 9.9064 12.3438C9.9064 12.6026 9.7 12.8125 9.44538 12.8125H6.15674C5.90212 12.8125 5.69572 12.6026 5.69572 12.3438C5.69572 12.0849 5.90212 11.875 6.15674 11.875ZM2.22865 5.6435C2.40871 5.46044 2.70059 5.46044 2.88065 5.6435L3.13132 5.89841L4.19452 4.81741C4.37459 4.63437 4.66646 4.63431 4.84649 4.81741C5.02652 5.00044 5.02652 5.29725 4.84649 5.48031L3.45729 6.89275C3.41451 6.93627 3.36369 6.9708 3.30775 6.99436C3.25181 7.01792 3.19185 7.03004 3.13129 7.03004C3.07074 7.03004 3.01077 7.01792 2.95483 6.99436C2.8989 6.9708 2.84808 6.93627 2.80529 6.89275L2.22862 6.30638C2.04858 6.12334 2.04859 5.82653 2.22865 5.6435ZM2.22865 9.00716C2.40871 8.82409 2.70059 8.82409 2.88065 9.00716L3.13132 9.26203L4.19452 8.18103C4.37455 7.998 4.66646 7.998 4.84649 8.18103C5.02652 8.36406 5.02652 8.66088 4.84649 8.84394L3.45729 10.2564C3.4145 10.2999 3.36368 10.3344 3.30775 10.358C3.25181 10.3816 3.19185 10.3937 3.13129 10.3937C3.07074 10.3937 3.01078 10.3816 2.95484 10.358C2.8989 10.3344 2.84808 10.2999 2.80529 10.2564L2.22862 9.67003C2.04858 9.487 2.04859 9.19022 2.22865 9.00716ZM2.22865 12.1322C2.40871 11.9491 2.70059 11.9491 2.88065 12.1322L3.13132 12.387L4.19452 11.306C4.37455 11.123 4.66646 11.123 4.84649 11.306C5.02652 11.4891 5.02652 11.7859 4.84649 11.9689L3.45729 13.3814C3.4145 13.4249 3.36368 13.4594 3.30775 13.483C3.25181 13.5066 3.19185 13.5187 3.13129 13.5187C3.07074 13.5187 3.01078 13.5066 2.95484 13.483C2.8989 13.4594 2.84808 13.4249 2.80529 13.3814L2.22862 12.795C2.04858 12.612 2.04859 12.3152 2.22865 12.1322Z" fill="#1D4ED8"/>
<path d="M2.93359 1.5625C2.93359 1.73509 3.07119 1.875 3.24095 1.875H8.77325C8.94301 1.875 9.08061 1.73509 9.08061 1.5625V0.3125C9.08061 0.139906 8.94301 0 8.77325 0H3.24095C3.07119 0 2.93359 0.139906 2.93359 0.3125V1.5625Z" fill="#1D4ED8"/>
</svg>
