<svg width="12" height="12" viewBox="0 0 12 12" fill="none" xmlns="http://www.w3.org/2000/svg">
<path d="M4.42497 8.44842H4.25933C4.10441 8.44842 3.96231 8.35147 3.91613 8.2036C3.86022 8.02451 3.95382 7.83723 4.1244 7.77183L6.74976 6.7621C6.93415 6.69118 7.0227 6.48212 6.94662 6.29979C5.91096 3.81773 5.65181 0.756186 5.64888 0.720179C5.62221 0.390872 5.19307 0.278259 5.00881 0.554148L4.50284 1.31299L3.74422 0.807242C3.54342 0.673214 3.26911 0.77852 3.21046 1.01352L2.98078 1.93162L2.34421 1.50724C2.14342 1.37322 1.86911 1.47852 1.81046 1.71353L1.58077 2.63162L0.944206 2.20725C0.701699 2.04557 0.37821 2.2349 0.401048 2.52553C0.408048 2.61631 0.581079 4.7756 1.23755 6.97361C1.62868 8.28283 2.11212 9.33108 2.67431 10.0897C3.0688 10.6215 3.67347 10.8984 4.28435 10.8984H4.4064C5.07866 10.8984 5.63962 10.3646 5.64984 9.69237C5.66023 9.00823 5.10677 8.44842 4.42497 8.44842ZM2.1749 4.72835C2.10315 4.54897 2.19043 4.34532 2.37002 4.27335L4.12003 3.57335C4.2994 3.5016 4.50306 3.58888 4.57503 3.76847C4.64678 3.94785 4.5595 4.1515 4.3799 4.22347C2.48474 4.98153 2.59658 4.94841 2.49996 4.94841C2.36127 4.94841 2.2298 4.86529 2.1749 4.72835ZM2.9799 6.32348C2.80304 6.39422 2.5977 6.30994 2.5249 6.12835C2.45315 5.94898 2.54043 5.74532 2.72002 5.67335L4.47003 4.97335C4.64941 4.9016 4.85306 4.98888 4.92503 5.16848C4.99678 5.34785 4.9095 5.55151 4.72991 5.62348L2.9799 6.32348ZM9.84999 6.34842C9.75857 6.34842 9.93937 6.28916 7.40895 7.26236C7.40586 7.25724 5.71608 7.90962 5.71894 7.9085C5.59447 7.95639 5.56781 8.11953 5.66946 8.20585C6.73447 9.11025 6.51327 10.8077 5.25333 11.4109C5.15927 11.4559 5.19079 11.5983 5.29507 11.5984C5.58572 11.5989 5.86463 11.528 6.10847 11.4007L9.88258 9.84668C9.95229 9.84035 10.0185 9.81313 10.0725 9.76859C11.0953 9.3476 11.0473 9.37857 11.1168 9.30593C12.1741 8.19741 11.382 6.34842 9.84999 6.34842ZM9.39748 4.4959C9.26102 4.63232 8.83356 4.63197 8.69748 4.4959C8.5608 4.35923 8.33918 4.35921 8.20251 4.4959C8.06581 4.6326 8.06583 4.8542 8.20251 4.99087C8.34931 5.13768 8.55964 5.23745 8.79998 5.278V5.64842C8.79998 5.8417 8.95667 5.99842 9.14998 5.99842C9.34329 5.99842 9.49999 5.8417 9.49999 5.64842V5.22631C10.4186 4.91409 10.3922 3.68414 9.55264 3.33637L9.01521 3.11375C8.73552 2.99792 8.68525 2.49843 9.25251 2.49843C9.42347 2.49843 9.55148 2.54992 9.60251 2.60095C9.73919 2.73763 9.96081 2.73765 10.0975 2.60095C10.2342 2.46426 10.2342 2.24266 10.0975 2.10599C9.95068 1.95918 9.74035 1.85941 9.50001 1.81886V1.4484C9.50001 1.25511 9.34332 1.0984 9.15001 1.0984C8.9567 1.0984 8.8 1.25511 8.8 1.4484V1.8705C7.88939 2.18001 7.90055 3.4097 8.74735 3.76044L9.28478 3.98307C9.48636 4.06656 9.56016 4.33278 9.39748 4.4959Z" fill="#1E293B"/>
</svg>
