<svg width="10" height="10" viewBox="0 0 10 10" fill="none" xmlns="http://www.w3.org/2000/svg">
<path d="M5.87191 6.29513C5.75618 6.29513 5.64519 6.24961 5.56335 6.1686C5.48152 6.08758 5.43555 5.9777 5.43555 5.86313V4.13513C5.43555 4.02055 5.48152 3.91067 5.56335 3.82965C5.64519 3.74864 5.75618 3.70312 5.87191 3.70312C5.98764 3.70312 6.09863 3.74864 6.18047 3.82965C6.2623 3.91067 6.30827 4.02055 6.30827 4.13513V5.86313C6.30827 5.9777 6.2623 6.08758 6.18047 6.1686C6.09863 6.24961 5.98764 6.29513 5.87191 6.29513Z" fill="white"/>
<path d="M5.87195 5.43169C5.75622 5.43169 5.64523 5.38617 5.56339 5.30516C5.48156 5.22414 5.43558 5.11426 5.43558 4.99969C5.43558 4.88511 5.48156 4.77523 5.56339 4.69422C5.64523 4.6132 5.75622 4.56769 5.87195 4.56769H9.36286C9.47859 4.56769 9.58958 4.6132 9.67141 4.69422C9.75325 4.77523 9.79922 4.88511 9.79922 4.99969C9.79922 5.11426 9.75325 5.22414 9.67141 5.30516C9.58958 5.38617 9.47859 5.43169 9.36286 5.43169H5.87195ZM0.635582 5.43169C0.519852 5.43169 0.408861 5.38617 0.327027 5.30516C0.245193 5.22414 0.199219 5.11426 0.199219 4.99969C0.199219 4.88511 0.245193 4.77523 0.327027 4.69422C0.408861 4.6132 0.519852 4.56769 0.635582 4.56769H4.56286C4.67859 4.56769 4.78958 4.6132 4.87141 4.69422C4.95325 4.77523 4.99922 4.88511 4.99922 4.99969C4.99922 5.11426 4.95325 5.22414 4.87141 5.30516C4.78958 5.38617 4.67859 5.43169 4.56286 5.43169H0.635582ZM3.69013 3.27169C3.5744 3.27169 3.46341 3.22617 3.38157 3.14516C3.29974 3.06414 3.25376 2.95426 3.25376 2.83969V1.11169C3.25376 0.997114 3.29974 0.887233 3.38157 0.806217C3.46341 0.725202 3.5744 0.679688 3.69013 0.679688C3.80586 0.679688 3.91685 0.725202 3.99868 0.806217C4.08052 0.887233 4.12649 0.997114 4.12649 1.11169V2.83969C4.12649 2.95426 4.08052 3.06414 3.99868 3.14516C3.91685 3.22617 3.80586 3.27169 3.69013 3.27169Z" fill="white"/>
<path d="M3.69013 2.40697C3.5744 2.40697 3.46341 2.36145 3.38157 2.28044C3.29974 2.19942 3.25376 2.08954 3.25376 1.97497C3.25376 1.8604 3.29974 1.75051 3.38157 1.6695C3.46341 1.58848 3.5744 1.54297 3.69013 1.54297H9.36286C9.47859 1.54297 9.58958 1.58848 9.67141 1.6695C9.75325 1.75051 9.79922 1.8604 9.79922 1.97497C9.79922 2.08954 9.75325 2.19942 9.67141 2.28044C9.58958 2.36145 9.47859 2.40697 9.36286 2.40697H3.69013ZM0.635582 2.40697C0.519852 2.40697 0.408861 2.36145 0.327027 2.28044C0.245193 2.19942 0.199219 2.08954 0.199219 1.97497C0.199219 1.8604 0.245193 1.75051 0.327027 1.6695C0.408861 1.58848 0.519852 1.54297 0.635582 1.54297H2.38104C2.49677 1.54297 2.60776 1.58848 2.68959 1.6695C2.77143 1.75051 2.8174 1.8604 2.8174 1.97497C2.8174 2.08954 2.77143 2.19942 2.68959 2.28044C2.60776 2.36145 2.49677 2.40697 2.38104 2.40697H0.635582ZM3.69013 9.31897C3.5744 9.31897 3.46341 9.27346 3.38157 9.19244C3.29974 9.11142 3.25376 9.00154 3.25376 8.88697V7.15897C3.25376 7.0444 3.29974 6.93451 3.38157 6.8535C3.46341 6.77248 3.5744 6.72697 3.69013 6.72697C3.80586 6.72697 3.91685 6.77248 3.99868 6.8535C4.08052 6.93451 4.12649 7.0444 4.12649 7.15897V8.88697C4.12649 9.00154 4.08052 9.11142 3.99868 9.19244C3.91685 9.27346 3.80586 9.31897 3.69013 9.31897Z" fill="white"/>
<path d="M3.69013 8.45384C3.5744 8.45384 3.46341 8.40833 3.38157 8.32731C3.29974 8.2463 3.25376 8.13642 3.25376 8.02184C3.25376 7.90727 3.29974 7.79739 3.38157 7.71637C3.46341 7.63536 3.5744 7.58984 3.69013 7.58984H9.36286C9.47859 7.58984 9.58958 7.63536 9.67141 7.71637C9.75325 7.79739 9.79922 7.90727 9.79922 8.02184C9.79922 8.13642 9.75325 8.2463 9.67141 8.32731C9.58958 8.40833 9.47859 8.45384 9.36286 8.45384H3.69013ZM0.635582 8.45384C0.519852 8.45384 0.408861 8.40833 0.327027 8.32731C0.245193 8.2463 0.199219 8.13642 0.199219 8.02184C0.199219 7.90727 0.245193 7.79739 0.327027 7.71637C0.408861 7.63536 0.519852 7.58984 0.635582 7.58984H2.38104C2.49677 7.58984 2.60776 7.63536 2.68959 7.71637C2.77143 7.79739 2.8174 7.90727 2.8174 8.02184C2.8174 8.13642 2.77143 8.2463 2.68959 8.32731C2.60776 8.40833 2.49677 8.45384 2.38104 8.45384H0.635582Z" fill="white"/>
</svg>
