<svg width="12" height="12" viewBox="0 0 12 12" fill="none" xmlns="http://www.w3.org/2000/svg">
<path d="M4.10092 7.90555C3.78269 8.15441 3.52532 8.47249 3.34836 8.83565C3.1714 9.19881 3.07949 9.59751 3.07962 10.0015V10.8015H1.47966C1.03701 10.8015 0.679688 10.4441 0.679688 10.0015V9.46817C0.679688 8.4362 1.51433 7.60156 2.5463 7.60156H3.07962C3.45827 7.60156 3.8076 7.71356 4.10092 7.90555Z" fill="#1E293B"/>
<path d="M9.21315 7.59915C9.87587 7.59915 10.4131 7.06191 10.4131 6.39918C10.4131 5.73646 9.87587 5.19922 9.21315 5.19922C8.55043 5.19922 8.01318 5.73646 8.01318 6.39918C8.01318 7.06191 8.55043 7.59915 9.21315 7.59915Z" fill="black"/>
<path d="M2.81325 7.59915C3.47597 7.59915 4.01321 7.06191 4.01321 6.39918C4.01321 5.73646 3.47597 5.19922 2.81325 5.19922C2.15052 5.19922 1.61328 5.73646 1.61328 6.39918C1.61328 7.06191 2.15052 7.59915 2.81325 7.59915Z" fill="black"/>
<path d="M11.346 9.46817V10.0015C11.346 10.4441 10.9887 10.8015 10.5461 10.8015H8.94611V10.0015C8.94611 9.15085 8.54612 8.39354 7.9248 7.90555C8.21813 7.71356 8.56745 7.60156 8.94611 7.60156H9.47943C10.5114 7.60156 11.346 8.4362 11.346 9.46817Z" fill="black"/>
<path d="M6.01301 7.86684C6.82301 7.86684 7.47964 7.21021 7.47964 6.40022C7.47964 5.59022 6.82301 4.93359 6.01301 4.93359C5.20302 4.93359 4.54639 5.59022 4.54639 6.40022C4.54639 7.21021 5.20302 7.86684 6.01301 7.86684Z" fill="black"/>
<path d="M6.27981 7.86521H5.7465C4.57026 7.86521 3.61322 8.82225 3.61322 9.99848V10.7985C3.61322 11.2395 3.97215 11.5984 4.4132 11.5984H7.61311C8.05416 11.5984 8.41308 11.2395 8.41308 10.7985V9.99848C8.41308 8.82225 7.45605 7.86521 6.27981 7.86521ZM9.87971 4.04772L9.23626 4.27652C9.19405 4.29153 9.14882 4.29602 9.10448 4.28962C9.06014 4.28321 9.01802 4.2661 8.98178 4.23976C8.94554 4.21342 8.91627 4.17865 8.89649 4.13845C8.87671 4.09825 8.86703 4.05384 8.86827 4.00906L8.88694 3.32641L8.47042 2.78509C8.44313 2.74957 8.42489 2.70794 8.41729 2.6638C8.40968 2.61965 8.41294 2.57432 8.42677 2.53171C8.44061 2.48911 8.46461 2.45051 8.49669 2.41925C8.52878 2.388 8.56799 2.36502 8.61095 2.35231L9.26613 2.15925L9.65225 1.59579C9.67757 1.55884 9.71152 1.5286 9.75115 1.50772C9.79078 1.48683 9.83491 1.47591 9.87971 1.47591C9.92451 1.47591 9.96864 1.48683 10.0083 1.50772C10.0479 1.5286 10.0818 1.55884 10.1072 1.59579L10.4933 2.15925L11.1485 2.35231C11.3343 2.40697 11.4071 2.6315 11.289 2.78509L10.8725 3.32641L10.8911 4.00906C10.8923 4.05382 10.8826 4.0982 10.8628 4.13836C10.843 4.17853 10.8137 4.21327 10.7775 4.2396C10.7413 4.26592 10.6992 4.28304 10.6549 4.28947C10.6106 4.29591 10.5654 4.29146 10.5232 4.27652L9.87971 4.04772ZM2.1466 4.04772L1.50315 4.27652C1.46094 4.29153 1.41571 4.29602 1.37137 4.28962C1.32703 4.28321 1.28492 4.2661 1.24868 4.23976C1.21244 4.21342 1.18316 4.17865 1.16338 4.13845C1.1436 4.09825 1.13392 4.05384 1.13516 4.00906L1.15383 3.32641L0.737309 2.78509C0.710018 2.74957 0.691784 2.70794 0.684181 2.6638C0.676577 2.61965 0.679833 2.57432 0.693667 2.53171C0.707502 2.48911 0.731498 2.45051 0.763585 2.41925C0.795672 2.388 0.834885 2.36502 0.877838 2.35231L1.53302 2.15925L1.91914 1.59579C1.94446 1.55884 1.97841 1.5286 2.01804 1.50772C2.05767 1.48683 2.1018 1.47591 2.1466 1.47591C2.1914 1.47591 2.23553 1.48683 2.27516 1.50772C2.31479 1.5286 2.34874 1.55884 2.37406 1.59579L2.76018 2.15925L3.41536 2.35231C3.60123 2.40697 3.67402 2.6315 3.55589 2.78509L3.13937 3.32641L3.15804 4.00906C3.15922 4.05382 3.14949 4.0982 3.1297 4.13836C3.1099 4.17853 3.08063 4.21327 3.04441 4.2396C3.00818 4.26592 2.9661 4.28304 2.92179 4.28947C2.87747 4.29591 2.83226 4.29146 2.79005 4.27652L2.1466 4.04772ZM6.01315 3.44774L5.25024 3.71893C5.2002 3.73671 5.14658 3.74203 5.09402 3.73444C5.04147 3.72684 4.99155 3.70656 4.94859 3.67533C4.90563 3.64411 4.87092 3.6029 4.84747 3.55525C4.82402 3.5076 4.81253 3.45496 4.81399 3.40188L4.83612 2.59257L4.34227 1.95072C4.30992 1.9086 4.28831 1.85925 4.2793 1.80691C4.2703 1.75458 4.27416 1.70083 4.29057 1.65033C4.30698 1.59982 4.33543 1.55407 4.37347 1.51702C4.41152 1.47997 4.45801 1.45273 4.50893 1.43767L5.28571 1.20861L5.74356 0.540625C5.77358 0.496792 5.81384 0.460936 5.86083 0.436161C5.90783 0.411386 5.96016 0.398438 6.01329 0.398438C6.06642 0.398437 6.11874 0.411386 6.16574 0.436161C6.21274 0.460936 6.25299 0.496792 6.28301 0.540625L6.74087 1.20861L7.51764 1.43767C7.56857 1.45273 7.61506 1.47997 7.6531 1.51702C7.69115 1.55407 7.7196 1.59982 7.73601 1.65033C7.75241 1.70083 7.75628 1.75458 7.74727 1.80691C7.73826 1.85925 7.71665 1.9086 7.68431 1.95072L7.19045 2.59257L7.21259 3.40188C7.21405 3.45496 7.20256 3.5076 7.1791 3.55525C7.15565 3.6029 7.12095 3.64411 7.07799 3.67533C7.03503 3.70656 6.98511 3.72684 6.93255 3.73444C6.87999 3.74203 6.82637 3.73671 6.77633 3.71893L6.01315 3.44774Z" fill="black"/>
</svg>
