<svg width="14" height="16" viewBox="0 0 14 16" fill="none" xmlns="http://www.w3.org/2000/svg">
<path d="M12.3929 1.99996H9.36134V1.66663C9.36134 0.747651 8.6058 0 7.67713 0H5.65608C4.7274 0 3.97186 0.747651 3.97186 1.66663V1.99996H0.940286C0.761614 1.99996 0.590259 2.07019 0.463919 2.19522C0.337579 2.32024 0.266602 2.4898 0.266602 2.66661V3.66659C0.266602 3.8434 0.337579 4.01296 0.463919 4.13798C0.590259 4.26301 0.761614 4.33324 0.940286 4.33324H12.3929C12.5716 4.33324 12.7429 4.26301 12.8693 4.13798C12.9956 4.01296 13.0666 3.8434 13.0666 3.66659V2.66661C13.0666 2.4898 12.9956 2.32024 12.8693 2.19522C12.7429 2.07019 12.5716 1.99996 12.3929 1.99996ZM5.31923 1.66663C5.31923 1.48297 5.47048 1.33331 5.65608 1.33331H7.67713C7.86273 1.33331 8.01397 1.48297 8.01397 1.66663V1.99996H5.31923V1.66663ZM12.1504 5.21823C12.0872 5.14948 12.0103 5.09455 11.9244 5.05696C11.8386 5.01936 11.7457 4.99993 11.6519 4.9999H1.68134C1.58746 4.99994 1.49462 5.01939 1.40877 5.05701C1.32293 5.09462 1.24597 5.14956 1.18283 5.21832C1.1197 5.28708 1.07177 5.36812 1.04212 5.45627C1.01248 5.54442 1.00177 5.63773 1.01069 5.73021L1.83864 14.2927C1.93262 15.266 2.79797 16 3.85161 16H9.48159C10.5349 16 11.4006 15.266 11.4946 14.2927L12.3225 5.73021C12.3315 5.63772 12.3208 5.54439 12.2911 5.45622C12.2615 5.36805 12.2136 5.28698 12.1504 5.21823ZM5.0922 14.3317C5.07772 14.3324 5.06357 14.333 5.04909 14.333C4.87788 14.3329 4.71316 14.2682 4.5884 14.1522C4.46364 14.0361 4.38821 13.8775 4.37742 13.7084L3.97321 7.37518C3.96205 7.19875 4.02212 7.02515 4.14023 6.89252C4.25834 6.75989 4.42483 6.67909 4.60311 6.66786C4.78131 6.65717 4.95655 6.71674 5.09049 6.83355C5.22443 6.95036 5.30619 7.11489 5.31789 7.29118L5.7221 13.6244C5.73326 13.8008 5.67319 13.9744 5.55508 14.107C5.43697 14.2397 5.27048 14.3205 5.0922 14.3317ZM8.95578 13.7084C8.95065 13.7961 8.92805 13.8819 8.8893 13.9609C8.85054 14.0399 8.79639 14.1106 8.72994 14.1688C8.6635 14.2271 8.58608 14.2718 8.50213 14.3003C8.41819 14.3289 8.32937 14.3407 8.24078 14.3352C8.15219 14.3296 8.06558 14.3068 7.98593 14.2681C7.90628 14.2293 7.83515 14.1754 7.77664 14.1093C7.71812 14.0432 7.67338 13.9664 7.64497 13.8832C7.61656 13.8 7.60505 13.712 7.61111 13.6244L8.01532 7.29118C8.02746 7.11538 8.10944 6.95149 8.24334 6.83534C8.37724 6.71918 8.55216 6.66021 8.72988 6.67131C8.90759 6.68241 9.07363 6.76268 9.19171 6.89458C9.30978 7.02648 9.37029 7.19927 9.35999 7.37518L8.95578 13.7084Z" fill="#1E293B"/>
</svg>
