<svg width="10" height="9" viewBox="0 0 10 9" fill="none" xmlns="http://www.w3.org/2000/svg">
<path d="M9.43844 5.91726C9.33086 5.81229 9.2 5.75977 9.04622 5.75977H6.36921L5.58461 6.52473C5.36152 6.73469 5.1 6.83972 4.8 6.83972C4.50006 6.83972 4.23846 6.73483 4.01539 6.52473L3.23655 5.75977H0.553839C0.400022 5.75977 0.269261 5.81235 0.161536 5.91726C0.053832 6.02223 0 6.14974 0 6.29981V8.09973C0 8.24974 0.053832 8.37723 0.161536 8.48222C0.269241 8.58719 0.400002 8.63964 0.553839 8.63964H9.04624C9.20002 8.63964 9.33088 8.58719 9.43846 8.48222C9.54621 8.37723 9.6 8.24974 9.6 8.09973V6.29981C9.6 6.14974 9.54621 6.02223 9.43844 5.91726ZM7.2751 7.81285C7.20193 7.88411 7.11536 7.91971 7.01536 7.91971C6.91535 7.91971 6.82891 7.88411 6.75576 7.81285C6.68273 7.74159 6.64621 7.65725 6.64621 7.5598C6.64621 7.46232 6.68273 7.37784 6.75576 7.30669C6.82891 7.23537 6.91535 7.19969 7.01536 7.19969C7.11536 7.19969 7.20191 7.23537 7.2751 7.30669C7.34811 7.37782 7.38464 7.4623 7.38464 7.5598C7.38464 7.65723 7.34811 7.74159 7.2751 7.81285ZM8.75192 7.81285C8.6789 7.88411 8.59233 7.91971 8.4923 7.91971C8.39232 7.91971 8.30581 7.88411 8.2327 7.81285C8.15969 7.74159 8.12318 7.65725 8.12318 7.5598C8.12318 7.46232 8.15969 7.37784 8.2327 7.30669C8.30579 7.23537 8.3923 7.19969 8.4923 7.19969C8.59231 7.19969 8.67887 7.23537 8.75192 7.30669C8.82501 7.37782 8.86159 7.4623 8.86159 7.5598C8.86159 7.65723 8.82507 7.74159 8.75192 7.81285Z" fill="white"/>
<path d="M4.54003 6.01317C4.6093 6.08435 4.69583 6.11997 4.79963 6.11997C4.90352 6.11997 4.98995 6.08435 5.05924 6.01317L7.64388 3.49315C7.76308 3.38442 7.79006 3.25314 7.72465 3.09939C7.65938 2.95318 7.54588 2.88007 7.38428 2.87999H5.90731V0.360011C5.90731 0.262527 5.87072 0.178144 5.79777 0.106902C5.72462 0.0356405 5.63811 0 5.53817 0H4.0611C3.96116 0 3.87461 0.0356405 3.8015 0.106902C3.72845 0.178144 3.6919 0.262507 3.6919 0.360011V2.88001H2.21497C2.05335 2.88001 1.93995 2.9532 1.87456 3.09941C1.80921 3.2531 1.83611 3.38444 1.95537 3.49317L4.54003 6.01317Z" fill="white"/>
</svg>
