<svg width="17" height="16" viewBox="0 0 17 16" fill="none" xmlns="http://www.w3.org/2000/svg">
<path d="M13.334 8.00152C12.9654 8.00152 12.6674 8.30025 12.6674 8.66817V14.0017C12.6674 14.369 12.3687 14.6684 12.0007 14.6684H2.66706C2.29902 14.6684 2.00041 14.369 2.00041 14.0017V4.66803C2.00041 4.30071 2.29902 4.00139 2.66706 4.00139H8.00061C8.36928 4.00139 8.66726 3.70269 8.66726 3.33474C8.66726 2.9667 8.36928 2.66797 8.00061 2.66797H2.66706C1.56437 2.66797 0.666992 3.56534 0.666992 4.66803V14.0017C0.666992 15.1044 1.56437 16.0018 2.66706 16.0018H12.0007C13.1034 16.0018 14.0008 15.1044 14.0008 14.0017V8.66817C14.0008 8.29953 13.7027 8.00152 13.334 8.00152Z" fill="#1E293B"/>
<path d="M6.91776 7.39239C6.87143 7.43894 6.83969 7.49801 6.82645 7.56234L6.35512 9.91985C6.33315 10.0291 6.36781 10.1418 6.44644 10.2211C6.47747 10.252 6.51428 10.2766 6.55479 10.2933C6.5953 10.31 6.63869 10.3185 6.68251 10.3184C6.70376 10.3184 6.72585 10.3165 6.74782 10.3118L9.10459 9.84051C9.1699 9.82707 9.22922 9.79582 9.27525 9.74907L14.5501 4.4742L12.1933 2.11756L6.91776 7.39239ZM16.1794 0.48754C15.5295 -0.162513 14.4721 -0.162513 13.8226 0.48754L12.9 1.41016L15.2568 3.76693L16.1794 2.84418C16.4941 2.5302 16.6675 2.11147 16.6675 1.66614C16.6675 1.22081 16.4941 0.802113 16.1794 0.48754Z" fill="black"/>
</svg>
