<svg width="12" height="8" viewBox="0 0 12 8" fill="none" xmlns="http://www.w3.org/2000/svg">
<path fill-rule="evenodd" clip-rule="evenodd" d="M7.56609 4.29771V6.52084C7.56609 7.09588 7.09585 7.56609 6.52084 7.56609H1.04525C0.470237 7.56609 0 7.09585 0 6.52084V1.04525C0 0.470237 0.470237 0 1.04525 0H6.52084C7.09585 0 7.56609 0.470237 7.56609 1.04525V1.94061C7.29814 1.96251 7.03153 2.00561 6.76956 2.06796V1.03067C6.76956 0.902009 6.6641 0.796557 6.53544 0.796557H1.02999C0.90133 0.796557 0.796534 0.902009 0.796534 1.03067V6.53612C0.796534 6.66478 0.90133 6.76958 1.02999 6.76958H6.53544C6.6641 6.76958 6.76956 6.66478 6.76956 6.53612V4.2566C7.03574 4.24911 7.30209 4.26285 7.56609 4.29771ZM5.58039 2.49971C5.87217 2.35407 6.17623 2.23445 6.48902 2.14222V1.07709H1.07707V6.48902H6.489V4.27186C5.45901 4.35475 4.45356 4.73943 3.59203 5.33966C3.4574 5.43318 3.27369 5.42057 3.15364 5.30915C3.09485 5.25535 3.05622 5.18307 3.04416 5.1043C3.0321 5.02553 3.04732 4.945 3.08731 4.87607C3.67626 3.85735 4.52452 3.025 5.58037 2.49973L5.58039 2.49971ZM11.176 3.13309L8.74531 1.00215C8.72409 0.984249 8.69622 0.979593 8.67102 0.990871C8.64582 1.00149 8.62989 1.0247 8.62858 1.05255L8.58747 2.1681C8.58681 2.18867 8.57818 2.20523 8.56293 2.2185C8.54767 2.23176 8.52909 2.23773 8.50921 2.23509C6.71055 2.02484 4.55702 2.89302 3.33073 5.01666C3.31414 5.04518 3.31945 5.08032 3.344 5.10288C3.36854 5.12543 3.40436 5.12808 3.43155 5.10885C4.97422 4.03508 6.89824 3.65373 8.62994 4.26589C8.6578 4.27584 8.67636 4.30103 8.67636 4.33089L8.69493 5.72035C8.69559 5.74953 8.71283 5.77407 8.74004 5.7847C8.76725 5.79532 8.79641 5.78867 8.81632 5.76745L11.1814 3.23394C11.1946 3.21934 11.2006 3.20209 11.2 3.1822C11.1994 3.17285 11.197 3.1637 11.1929 3.15528C11.1888 3.14686 11.1831 3.13932 11.1761 3.13312L11.176 3.13309Z" fill="#6B7280"/>
</svg>
