<svg width="19" height="20" viewBox="0 0 19 20" fill="none" xmlns="http://www.w3.org/2000/svg">
<path d="M18.24 4.26667V5.68889H0V4.26667C0 3.88947 0.147824 3.52772 0.410952 3.261C0.67408 2.99429 1.03096 2.84444 1.40308 2.84444H3.50769V0.711111C3.50769 0.522513 3.5816 0.341639 3.71317 0.20828C3.84473 0.0749204 4.02317 0 4.20923 0C4.39529 0 4.57373 0.0749204 4.70529 0.20828C4.83686 0.341639 4.91077 0.522513 4.91077 0.711111V2.84444H13.3292V0.711111C13.3292 0.522513 13.4031 0.341639 13.5347 0.20828C13.6663 0.0749204 13.8447 0 14.0308 0C14.2168 0 14.3953 0.0749204 14.5268 0.20828C14.6584 0.341639 14.7323 0.522513 14.7323 0.711111V2.84444H16.8369C17.209 2.84444 17.5659 2.99429 17.829 3.261C18.0922 3.52772 18.24 3.88947 18.24 4.26667ZM0 7.11111H18.24V17.7778C18.24 18.155 18.0922 18.5167 17.829 18.7834C17.5659 19.0502 17.209 19.2 16.8369 19.2H1.40308C1.03096 19.2 0.67408 19.0502 0.410952 18.7834C0.147824 18.5167 0 18.155 0 17.7778V7.11111ZM5.15631 12.1956L6.55939 13.5609C6.62572 13.6232 6.67533 13.7016 6.70355 13.7886C6.73178 13.8757 6.73769 13.9686 6.72074 14.0587L6.39803 15.9929C6.38092 16.0973 6.39287 16.2044 6.43252 16.3023C6.47217 16.4001 6.53796 16.4849 6.6225 16.5469C6.70704 16.609 6.80698 16.6459 6.91108 16.6535C7.01518 16.6612 7.11933 16.6393 7.21182 16.5902L8.91655 15.68C8.9981 15.6381 9.08822 15.6163 9.17963 15.6163C9.27104 15.6163 9.36116 15.6381 9.44271 15.68L11.1474 16.5902C11.2386 16.6301 11.3386 16.6447 11.4371 16.6327C11.5357 16.6206 11.6293 16.5823 11.7085 16.5215C11.7877 16.4608 11.8495 16.3799 11.8878 16.287C11.926 16.1941 11.9392 16.0926 11.9262 15.9929L11.6034 14.0587C11.5865 13.9686 11.5924 13.8757 11.6206 13.7886C11.6489 13.7016 11.6985 13.6232 11.7648 13.5609L13.1679 12.1956C13.2414 12.1207 13.2931 12.0267 13.3175 11.924C13.3418 11.8213 13.3379 11.7138 13.306 11.6132C13.2741 11.5127 13.2156 11.4229 13.1368 11.3538C13.058 11.2847 12.962 11.2388 12.8592 11.2213L10.944 10.944C10.8574 10.9341 10.7743 10.9038 10.7012 10.8557C10.6282 10.8076 10.5672 10.7428 10.5231 10.6667L9.6672 8.91022C9.62051 8.81593 9.54888 8.73665 9.4603 8.68125C9.37172 8.62586 9.26968 8.59652 9.1656 8.59652C9.06152 8.59652 8.95949 8.62586 8.8709 8.68125C8.78233 8.73665 8.71069 8.81593 8.664 8.91022L7.80111 10.6667C7.7612 10.7495 7.70204 10.8212 7.62872 10.8757C7.55539 10.9302 7.4701 10.9659 7.38019 10.9796L5.472 11.2569C5.37531 11.2773 5.28554 11.3229 5.21154 11.3892C5.13753 11.4555 5.08185 11.5402 5.04998 11.6349C5.01811 11.7297 5.01116 11.8312 5.02981 11.9295C5.04845 12.0278 5.09205 12.1195 5.15631 12.1956Z" fill="#1447E6"/>
</svg>
