<svg width="20" height="20" viewBox="0 0 20 20" fill="none" xmlns="http://www.w3.org/2000/svg">
<path d="M15.5954 3.34994C15.3342 3.084 14.9866 2.9375 14.6169 2.9375H14.0032V3.5625C14.0032 4.25175 13.4517 4.8125 12.7738 4.8125H7.24151C6.5636 4.8125 6.01209 4.25175 6.01209 3.5625V2.9375H5.39637C4.63459 2.9375 4.01415 3.56762 4.01329 4.34219L4 16.5922C3.99957 16.9681 4.14326 17.3216 4.40452 17.5876C4.66585 17.8535 5.01335 18 5.38308 18H14.6036C15.3654 18 15.9858 17.3699 15.9867 16.5953L16 4.34531C16.0004 3.96941 15.8567 3.61591 15.5954 3.34994ZM10.1567 7.625H13.4322C13.6868 7.625 13.8932 7.83488 13.8932 8.09375C13.8932 8.35262 13.6868 8.5625 13.4322 8.5625H10.1567C9.90212 8.5625 9.69572 8.35262 9.69572 8.09375C9.69572 7.83488 9.90212 7.625 10.1567 7.625ZM10.1567 10.75H13.4322C13.6868 10.75 13.8932 10.9599 13.8932 11.2188C13.8932 11.4776 13.6868 11.6875 13.4322 11.6875H10.1567C9.90212 11.6875 9.69572 11.4776 9.69572 11.2188C9.69572 10.9599 9.90212 10.75 10.1567 10.75ZM10.1567 13.875H13.4454C13.7 13.875 13.9064 14.0849 13.9064 14.3438C13.9064 14.6026 13.7 14.8125 13.4454 14.8125H10.1567C9.90212 14.8125 9.69572 14.6026 9.69572 14.3438C9.69572 14.0849 9.90212 13.875 10.1567 13.875ZM6.22865 7.6435C6.40871 7.46044 6.70059 7.46044 6.88065 7.6435L7.13132 7.89841L8.19452 6.81741C8.37459 6.63437 8.66646 6.63431 8.84649 6.81741C9.02652 7.00044 9.02652 7.29725 8.84649 7.48031L7.45729 8.89275C7.41451 8.93627 7.36369 8.9708 7.30775 8.99436C7.25181 9.01792 7.19185 9.03004 7.13129 9.03004C7.07074 9.03004 7.01077 9.01792 6.95483 8.99436C6.8989 8.9708 6.84808 8.93627 6.80529 8.89275L6.22862 8.30638C6.04858 8.12334 6.04859 7.82653 6.22865 7.6435ZM6.22865 11.0072C6.40871 10.8241 6.70059 10.8241 6.88065 11.0072L7.13132 11.262L8.19452 10.181C8.37455 9.998 8.66646 9.998 8.84649 10.181C9.02652 10.3641 9.02652 10.6609 8.84649 10.8439L7.45729 12.2564C7.4145 12.2999 7.36368 12.3344 7.30775 12.358C7.25181 12.3816 7.19185 12.3937 7.13129 12.3937C7.07074 12.3937 7.01078 12.3816 6.95484 12.358C6.8989 12.3344 6.84808 12.2999 6.80529 12.2564L6.22862 11.67C6.04858 11.487 6.04859 11.1902 6.22865 11.0072ZM6.22865 14.1322C6.40871 13.9491 6.70059 13.9491 6.88065 14.1322L7.13132 14.387L8.19452 13.306C8.37455 13.123 8.66646 13.123 8.84649 13.306C9.02652 13.4891 9.02652 13.7859 8.84649 13.9689L7.45729 15.3814C7.4145 15.4249 7.36368 15.4594 7.30775 15.483C7.25181 15.5066 7.19185 15.5187 7.13129 15.5187C7.07074 15.5187 7.01078 15.5066 6.95484 15.483C6.8989 15.4594 6.84808 15.4249 6.80529 15.3814L6.22862 14.795C6.04858 14.612 6.04859 14.3152 6.22865 14.1322Z" fill="#1D4ED8"/>
<path d="M6.93359 3.5625C6.93359 3.73509 7.07119 3.875 7.24095 3.875H12.7733C12.943 3.875 13.0806 3.73509 13.0806 3.5625V2.3125C13.0806 2.13991 12.943 2 12.7733 2H7.24095C7.07119 2 6.93359 2.13991 6.93359 2.3125V3.5625Z" fill="#1D4ED8"/>
</svg>
