<svg width="12" height="12" viewBox="0 0 12 12" fill="none" xmlns="http://www.w3.org/2000/svg">
<path d="M9.36865 0.59375V2.58912H11.3639L9.36865 0.59375Z" fill="#1E293B"/>
<path d="M9.04053 3.24219C8.85931 3.24219 8.7124 3.09528 8.7124 2.91406V0.398438H4.00928C3.46649 0.398438 3.0249 0.840028 3.0249 1.38281V5.05101C3.13301 5.04121 3.24241 5.03594 3.35303 5.03594C4.47145 5.03594 5.47265 5.54729 6.13522 6.34844H9.69678C9.87799 6.34844 10.0249 6.49535 10.0249 6.67656C10.0249 6.85778 9.87799 7.00469 9.69678 7.00469H6.56751C6.77716 7.41376 6.90611 7.85937 6.94733 8.31719H9.69678C9.87799 8.31719 10.0249 8.4641 10.0249 8.64531C10.0249 8.82653 9.87799 8.97344 9.69678 8.97344H6.94733C6.8492 10.0571 6.27021 11.004 5.42586 11.5984H10.5718C11.1146 11.5984 11.5562 11.1568 11.5562 10.6141V3.24219H9.04053ZM9.69678 5.03594H4.88428C4.70306 5.03594 4.55615 4.88903 4.55615 4.70781C4.55615 4.5266 4.70306 4.37969 4.88428 4.37969H9.69678C9.87799 4.37969 10.0249 4.5266 10.0249 4.70781C10.0249 4.88903 9.87799 5.03594 9.69678 5.03594Z" fill="black"/>
<path d="M3.35303 5.69531C1.72467 5.69531 0.399902 7.02008 0.399902 8.64844C0.399902 10.2768 1.72467 11.6016 3.35303 11.6016C4.98138 11.6016 6.30615 10.2768 6.30615 8.64844C6.30615 7.02008 4.98138 5.69531 3.35303 5.69531ZM3.17074 8.32031H3.53533C3.91727 8.32031 4.22803 8.63107 4.22803 9.01303V9.3776C4.22803 9.70953 3.99331 9.98756 3.68115 10.0547V10.1797C3.68115 10.3609 3.53424 10.5078 3.35303 10.5078C3.17181 10.5078 3.0249 10.3609 3.0249 10.1797V10.0547C2.71275 9.98756 2.47803 9.70953 2.47803 9.3776C2.47803 9.19638 2.62494 9.04947 2.80615 9.04947C2.98736 9.04947 3.13428 9.19638 3.13428 9.3776C3.13429 9.38726 3.13814 9.39653 3.14498 9.40336C3.15181 9.4102 3.16108 9.41405 3.17074 9.41406H3.53533C3.545 9.41405 3.55426 9.4102 3.5611 9.40336C3.56793 9.39653 3.57178 9.38726 3.5718 9.3776V9.01303C3.57178 9.00336 3.56793 8.9941 3.5611 8.98726C3.55426 8.98043 3.545 8.97658 3.53533 8.97656H3.17074C2.78878 8.97656 2.47803 8.66581 2.47803 8.28385V7.91928C2.47803 7.58735 2.71275 7.30932 3.0249 7.24214V7.11719C3.0249 6.93598 3.17181 6.78906 3.35303 6.78906C3.53424 6.78906 3.68115 6.93598 3.68115 7.11719V7.24214C3.99331 7.30932 4.22803 7.58735 4.22803 7.91928C4.22803 8.10049 4.08111 8.2474 3.8999 8.2474C3.71869 8.2474 3.57178 8.10049 3.57178 7.91928C3.57176 7.90961 3.56791 7.90035 3.56108 7.89351C3.55424 7.88668 3.54498 7.88283 3.53531 7.88281H3.17072C3.16106 7.88283 3.15179 7.88668 3.14496 7.89351C3.13812 7.90035 3.13427 7.90961 3.13426 7.91928V8.28385C3.13427 8.29352 3.13812 8.30279 3.14496 8.30962C3.1518 8.31646 3.16107 8.3203 3.17074 8.32031Z" fill="black"/>
</svg>
