<svg width="24" height="24" viewBox="0 0 24 24" fill="none" xmlns="http://www.w3.org/2000/svg">
<path d="M16.156 14.9291C17.6323 14.9291 19.0755 14.4913 20.3031 13.6711C21.5306 12.8509 22.4874 11.6851 23.0523 10.3211C23.6173 8.95716 23.7651 7.45629 23.4771 6.0083C23.1891 4.56032 22.4782 3.23026 21.4342 2.18632C20.3903 1.14239 19.0602 0.431455 17.6122 0.143433C16.1643 -0.144589 14.6634 0.00323426 13.2994 0.56821C11.9354 1.13318 10.7696 2.08994 9.94941 3.31748C9.1292 4.54502 8.69141 5.98822 8.69141 7.46457C8.69361 9.44362 9.48076 11.341 10.8802 12.7404C12.2796 14.1398 14.1769 14.9269 16.156 14.9291ZM16.156 8.12599C15.6377 8.12592 15.1364 7.94061 14.7427 7.60348C14.349 7.26635 14.0888 6.79961 14.0089 6.28747C13.9291 5.77533 14.035 5.25152 14.3074 4.81056C14.5798 4.3696 15.0008 4.04052 15.4946 3.88271V3.30709C15.4946 3.13167 15.5642 2.96344 15.6883 2.8394C15.8123 2.71536 15.9806 2.64567 16.156 2.64567C16.3314 2.64567 16.4996 2.71536 16.6237 2.8394C16.7477 2.96344 16.8174 3.13167 16.8174 3.30709V3.77953H17.6678C17.8432 3.77953 18.0114 3.84921 18.1355 3.97325C18.2595 4.09729 18.3292 4.26553 18.3292 4.44095C18.3292 4.61637 18.2595 4.7846 18.1355 4.90864C18.0114 5.03268 17.8432 5.10236 17.6678 5.10236H16.156C15.9304 5.10236 15.7141 5.19196 15.5547 5.35144C15.3952 5.51092 15.3056 5.72722 15.3056 5.95276C15.3056 6.1783 15.3952 6.3946 15.5547 6.55408C15.7141 6.71356 15.9304 6.80315 16.156 6.80315C16.6743 6.80322 17.1755 6.98853 17.5692 7.32566C17.9629 7.66279 18.2232 8.12953 18.303 8.64167C18.3828 9.15381 18.277 9.67762 18.0046 10.1186C17.7322 10.5595 17.3111 10.8886 16.8174 11.0464V11.622C16.8174 11.7975 16.7477 11.9657 16.6237 12.0897C16.4996 12.2138 16.3314 12.2835 16.156 12.2835C15.9806 12.2835 15.8123 12.2138 15.6883 12.0897C15.5642 11.9657 15.4946 11.7975 15.4946 11.622V11.1496H14.6442C14.4687 11.1496 14.3005 11.0799 14.1765 10.9559C14.0524 10.8318 13.9827 10.6636 13.9827 10.4882C13.9827 10.3128 14.0524 10.1445 14.1765 10.0205C14.3005 9.89646 14.4687 9.82677 14.6442 9.82677H16.156C16.3815 9.82677 16.5978 9.73718 16.7573 9.5777C16.9168 9.41822 17.0064 9.20192 17.0064 8.97638C17.0064 8.75084 16.9168 8.53454 16.7573 8.37506C16.5978 8.21558 16.3815 8.12599 16.156 8.12599Z" fill="#16A34A"/>
<path d="M3.87402 14.3623H0.661417C0.296127 14.3623 0 14.6584 0 15.0237V23.3387C0 23.704 0.296127 24.0001 0.661417 24.0001H3.87402C4.23931 24.0001 4.53543 23.704 4.53543 23.3387V15.0237C4.53543 14.6584 4.23931 14.3623 3.87402 14.3623Z" fill="#16A34A"/>
<path d="M21.9277 16.2202L18.04 18.463C18.0255 18.5541 18.0063 18.6444 17.9826 18.7336C17.8002 19.411 17.3566 19.9883 16.7491 20.3391C16.1416 20.6898 15.4198 20.7852 14.742 20.6045L11.5476 19.7499C11.4622 19.7288 11.3818 19.6909 11.3113 19.6384C11.2407 19.5859 11.1814 19.5198 11.1366 19.4441C11.0919 19.3684 11.0627 19.2845 11.0508 19.1973C11.0389 19.1102 11.0445 19.0215 11.0673 18.9366C11.0901 18.8516 11.1296 18.772 11.1835 18.7025C11.2374 18.633 11.3046 18.575 11.3812 18.5317C11.4578 18.4885 11.5422 18.461 11.6296 18.4508C11.717 18.4407 11.8055 18.448 11.89 18.4725L15.0841 19.3285C15.2525 19.3756 15.4286 19.3888 15.6022 19.3673C15.7758 19.3459 15.9434 19.2903 16.0953 19.2036C16.2473 19.117 16.3805 19.0011 16.4874 18.8626C16.5942 18.7242 16.6725 18.5659 16.7178 18.3969C16.7631 18.228 16.7744 18.0518 16.7511 17.8784C16.7279 17.7051 16.6704 17.5381 16.5822 17.3871C16.4939 17.236 16.3766 17.104 16.237 16.9987C16.0974 16.8933 15.9383 16.8167 15.7689 16.7732L12.7975 15.9768C11.9899 15.3581 11.0249 14.9785 10.0123 14.8813C8.99966 14.7841 7.98006 14.9731 7.06958 15.4269L6.93125 15.4961H5.85938V22.8662H8.1989L14.409 23.9244C14.9066 24.009 15.4161 23.9906 15.9063 23.8705C16.3964 23.7503 16.8568 23.531 17.2588 23.226L23.4553 18.5174C23.735 18.3047 23.9232 17.9934 23.9816 17.6468C24.0399 17.3003 23.9641 16.9446 23.7695 16.6519C23.5749 16.3593 23.2761 16.1518 22.934 16.0716C22.5919 15.9914 22.232 16.0446 21.9277 16.2202Z" fill="#16A34A"/>
</svg>
