<svg width="22" height="24" viewBox="0 0 22 24" fill="none" xmlns="http://www.w3.org/2000/svg">
<path d="M0.926066 7.02648L1.65812 8.38421C1.88867 8.81677 2.33087 9.11515 2.92948 9.11219C3.547 10.7839 5.05559 11.6942 6.75543 11.7561C7.7121 11.7954 9.92605 11.5674 10.2063 12.8143C10.6047 14.5954 7.60684 16.4464 8.37818 19.0355C8.57018 19.6856 8.93083 20.2116 9.47941 20.656C9.3267 21.0415 9.26628 21.4407 9.45346 21.8088C9.47163 21.8558 9.70625 22.2647 10.2908 23.3148C10.4757 23.6476 10.7912 23.8681 11.1552 23.9189C14.0233 24.3218 17.0449 23.1924 19.2722 21.2098C20.1496 20.4284 21.1593 19.3798 21.1793 18.1963C21.1852 17.8353 21.0143 17.5024 20.9028 17.1844C20.5091 16.0687 20.5421 16.1236 20.5084 16.0821C20.4369 15.4327 20.0495 15.161 19.4098 15.0568C19.3204 14.4701 19.0991 13.956 18.7248 13.4938C17.0216 11.3851 13.8606 12.9215 12.617 11.5908C11.7727 10.6856 13.0789 9.04769 13.6645 8.08101C13.974 7.56246 14.1838 7.01981 14.288 6.46827C14.3213 6.29035 14.0496 6.23105 14.0148 6.41675C13.9166 6.93567 13.7183 7.44792 13.4262 7.93794C12.8457 8.89572 11.3991 10.6923 12.4143 11.7806C13.775 13.2376 16.9 11.6768 18.5087 13.6687C19.048 14.3352 19.2229 15.0791 19.1722 15.9253C19.1203 16.7663 18.7496 17.617 18.128 18.3201C16.728 19.8976 15.0356 20.8658 13.0982 21.1968C11.177 21.5274 9.18029 20.7676 8.64468 18.9562C7.91448 16.5035 10.9142 14.7054 10.4772 12.7535C10.1436 11.2683 7.73657 11.5185 6.76618 11.4785C5.14529 11.4192 3.79868 10.5377 3.25047 9.17483C3.24009 9.14999 3.23268 9.12627 3.22267 9.10218C3.66302 9.09143 4.09002 9.06474 4.50108 9.02323C4.41916 9.34941 4.57818 9.70116 4.78056 9.94432C5.4066 10.6982 6.43629 10.9495 7.36109 11.096C7.90781 11.1834 8.46862 11.2405 9.01275 11.2969C9.40676 11.3339 9.87416 11.2754 10.2437 11.3673C10.7804 11.5003 11.0569 12.6479 11.107 13.2035C11.1492 13.678 11.1696 14.1495 11.5036 14.466C12.0218 14.9567 12.9195 14.694 13.0489 13.9612V13.9589C13.1589 13.2869 12.3424 12.9645 12.0325 12.6171C11.9054 12.4744 11.9002 12.3225 11.8212 12.1012C11.6722 11.6675 11.5373 11.2368 11.5262 10.7475C11.5099 9.89242 12.2101 9.256 12.2505 8.34677C12.2679 8.03801 12.1648 7.77485 11.9695 7.62658C11.8398 7.52576 11.6619 7.46831 11.4654 7.47832C10.965 7.48239 10.5477 7.78337 10.1763 8.05099C9.6486 8.42836 9.04199 8.68071 8.40237 8.78892C7.76275 8.89713 7.1069 8.85836 6.48448 8.67555C9.39268 7.92126 11.6774 6.15617 13.2776 3.42441C13.5389 3.67794 13.9006 4.31548 14.03 5.02937C14.0371 5.06512 14.0579 5.09667 14.088 5.1172C14.1182 5.13774 14.1551 5.14562 14.191 5.13916C14.2269 5.13269 14.2588 5.1124 14.2798 5.08264C14.3009 5.05288 14.3094 5.01605 14.3035 4.98007C14.1527 4.14646 13.7238 3.43479 13.3965 3.15939C13.5389 2.78984 13.5292 2.38953 13.3528 2.0437L12.7331 0.808666C12.7208 0.778897 12.707 0.749818 12.6915 0.721561C12.0229 -0.525338 8.91527 -0.117984 5.61639 1.64821C2.31901 3.41552 0.258879 5.7781 0.926066 7.02648ZM20.723 17.4969C20.8127 17.7267 20.9054 17.965 20.9013 18.1919C20.8835 19.2672 19.9224 20.2587 19.0873 21.0022C16.8103 23.0293 13.8588 24.0146 11.1933 23.6439C10.9165 23.605 10.6759 23.4356 10.5336 23.1795L10.0758 22.3603C12.8976 23.8429 19.8549 20.394 20.471 16.7904C20.663 17.333 20.6248 17.243 20.723 17.4969ZM18.336 18.5043C19.1088 17.6303 19.5369 16.5387 19.4479 15.3441C19.485 15.3589 19.8464 15.4138 20.0313 15.611C20.4131 16.0357 20.2026 16.9594 19.972 17.5006C18.6933 20.5374 12.8298 23.3511 10.2734 22.1505C9.77297 21.9059 9.51833 21.6268 9.64695 21.0474C9.65992 20.98 9.67994 20.9092 9.70699 20.8332C10.0821 21.0889 10.4746 21.2557 10.8223 21.3595C12.7987 21.9537 15.9537 21.1894 18.336 18.5043ZM13.1041 3.15717C13.0958 3.18277 13.0845 3.20728 13.0704 3.23019C11.4087 6.09502 9.09948 7.82118 6.01003 8.5069C4.84839 8.76636 3.97178 8.8012 2.88908 8.83567C2.68712 8.83803 2.48838 8.78491 2.31452 8.6821C2.14067 8.57929 1.99837 8.43074 1.90313 8.25263L1.52135 7.54466C1.87681 7.70257 2.26711 7.74742 2.66668 7.74742C4.0548 7.74742 6.05155 7.14472 8.00122 6.09946C9.77408 5.14983 11.2734 3.97262 12.1148 2.8699C12.4873 2.38397 12.7116 1.93584 12.7883 1.54072L13.1048 2.16973C13.2583 2.46996 13.2605 2.82468 13.1041 3.15717ZM5.74761 1.89359C7.69431 0.851292 9.64546 0.279735 10.955 0.279735C12.739 0.279735 12.9655 1.30127 11.8943 2.70125C9.74072 5.52383 4.04368 8.03505 1.82232 7.36341C1.50504 7.26704 1.28598 7.10951 1.17144 6.89527C0.597291 5.8211 2.693 3.53042 5.74761 1.89359Z" fill="#DC2626"/>
<path d="M3.87415 6.53832C4.87604 6.53832 6.34793 6.05053 7.66489 5.34479C9.68646 4.26246 11.4827 2.59301 10.9904 1.67304C10.4982 0.753799 8.11264 1.32424 6.09106 2.40694C4.06986 3.49001 2.27327 5.15946 2.76588 6.0787C2.93749 6.39895 3.33854 6.53832 3.87415 6.53832ZM6.22191 2.65195C7.71641 1.85132 9.03521 1.48474 9.86697 1.48474C10.3229 1.48474 10.6328 1.59483 10.7447 1.80425C11.0612 2.39582 9.84659 3.86104 7.5333 5.09979C5.21964 6.3389 3.32631 6.53795 3.01051 5.94785C2.69397 5.35665 3.90899 3.89143 6.22191 2.65195ZM11.9579 16.4783C11.7088 16.3115 11.4971 16.022 11.1498 15.9649C9.89181 15.7377 9.29801 18.7742 10.0097 19.8887C10.4648 20.6849 11.357 20.8565 12.0409 20.8565C13.5903 20.8565 15.385 20.0048 16.6612 19.1337C18.3221 18.001 18.8384 16.5443 18.6627 15.7878C18.5838 15.4475 18.2698 15.2321 17.7287 15.1484C17.4151 15.0946 16.9088 15.1246 16.5911 15.1669C15.0911 15.3641 14.1881 16.2952 13.277 16.5865C12.7718 16.7452 12.2911 16.7066 11.9579 16.4783ZM19.8774 5.75956C19.9144 5.6795 19.9159 5.56014 19.8629 5.49083C19.811 5.42337 19.7321 5.42708 19.6639 5.43709C19.0334 5.52604 18.4129 5.69655 17.8128 5.94489C17.6842 5.99826 17.5493 6.06239 17.4707 6.20806C17.4106 6.31963 17.3943 6.54276 17.4781 6.65767C17.5634 6.77517 17.7276 6.73514 17.8273 6.70808C18.4774 6.53016 19.1372 6.34854 19.7165 5.9334C19.778 5.88929 19.8407 5.83999 19.8774 5.75956ZM17.1664 5.03603C17.1604 5.14056 17.2123 5.29586 17.2954 5.32885C17.3806 5.36221 17.4696 5.25101 17.5233 5.18207C17.8725 4.73024 18.2265 4.27025 18.4667 3.69869C18.4922 3.6379 18.5171 3.57267 18.5171 3.50113C18.5174 3.42959 18.4856 3.34953 18.4337 3.33137C18.3833 3.31358 18.3362 3.35694 18.2965 3.39846C17.9249 3.795 17.5923 4.22633 17.3031 4.6865C17.239 4.78769 17.1742 4.89963 17.1664 5.03603ZM17.8484 7.68699C17.7554 7.64103 17.6549 7.59692 17.5626 7.63065C17.4918 7.65623 17.4121 7.76779 17.4255 7.87862C17.4399 7.99241 17.55 8.06617 17.6182 8.10917C18.0608 8.39124 18.5104 8.67628 18.9856 8.78896C19.036 8.80082 19.0886 8.81046 19.1357 8.78822C19.1625 8.77323 19.1842 8.7504 19.1977 8.72277C19.2112 8.69515 19.216 8.66405 19.2113 8.63365C19.2017 8.56694 19.1535 8.5232 19.1097 8.48873C18.7186 8.17797 18.2958 7.90924 17.8484 7.68699Z" fill="#DC2626"/>
<path d="M5.54195 5.08716C5.64685 4.98227 5.75694 4.92259 5.91966 4.78359C5.95672 4.80843 6.10499 4.98597 6.40003 4.98597C6.46008 4.98597 6.52013 4.97745 6.57795 4.96003C6.6107 4.94736 6.63746 4.9228 6.65289 4.89126C6.66831 4.85972 6.67126 4.82351 6.66114 4.78989C6.65103 4.75626 6.62859 4.7277 6.59833 4.7099C6.56806 4.6921 6.53219 4.68638 6.49789 4.69389C6.36964 4.73355 6.21952 4.69167 6.11759 4.589C5.91076 4.37994 5.90112 3.97407 6.15651 3.67532C6.23657 3.58228 6.32553 3.53187 6.39225 3.54077C6.5116 3.56004 6.67877 3.81061 6.88115 3.97852C7.59133 4.5712 8.26742 3.72388 8.09024 3.07263C8.24592 2.96699 8.40011 2.85764 8.54986 2.742C8.57906 2.71939 8.59807 2.68611 8.60273 2.64947C8.60739 2.61284 8.5973 2.57586 8.57469 2.54666C8.55208 2.51746 8.5188 2.49845 8.48217 2.49379C8.44553 2.48913 8.40855 2.49922 8.37936 2.52183C8.24369 2.62746 8.10358 2.72569 7.96236 2.82206C7.71291 2.50774 7.33076 2.47105 6.93601 2.56C6.90003 2.56807 6.86872 2.59009 6.84898 2.62123C6.82924 2.65237 6.82268 2.69008 6.83074 2.72606C6.8388 2.76204 6.86082 2.79334 6.89196 2.81309C6.92311 2.83283 6.96081 2.83939 6.99679 2.83133C7.20992 2.78314 7.38117 2.78425 7.52091 2.83281C8.10173 3.03482 7.79334 3.90105 7.3682 3.90105C6.96195 3.87881 6.79849 3.32393 6.43636 3.26648C6.04272 3.20458 5.7069 3.72684 5.68651 4.13234C5.6791 4.27764 5.70949 4.41923 5.76509 4.54563C5.5894 4.70687 5.48265 4.75357 5.3455 4.88997C5.33258 4.90287 5.32232 4.91819 5.31532 4.93505C5.30832 4.95191 5.3047 4.96999 5.30469 4.98825C5.30467 5.00651 5.30825 5.02459 5.31522 5.04147C5.32219 5.05835 5.33242 5.07368 5.34532 5.08661C5.35822 5.09953 5.37354 5.10979 5.3904 5.11679C5.40726 5.12379 5.42534 5.12741 5.4436 5.12742C5.46186 5.12744 5.47994 5.12386 5.49682 5.11689C5.51369 5.10992 5.52903 5.10006 5.54195 5.08716Z" fill="#DC2626"/>
</svg>
