<svg width="10" height="10" viewBox="0 0 10 10" fill="none" xmlns="http://www.w3.org/2000/svg">
<path fill-rule="evenodd" clip-rule="evenodd" d="M4.3602 4.35922H0.840195C0.670457 4.35922 0.50767 4.42665 0.387647 4.54667C0.267624 4.66669 0.200195 4.82948 0.200195 4.99922C0.200195 5.16896 0.267624 5.33174 0.387647 5.45177C0.50767 5.57179 0.670457 5.63922 0.840195 5.63922H4.3602V9.15922C4.3602 9.32896 4.42762 9.49174 4.54765 9.61177C4.66767 9.73179 4.83046 9.79922 5.0002 9.79922C5.16993 9.79922 5.33272 9.73179 5.45274 9.61177C5.57277 9.49174 5.6402 9.32896 5.6402 9.15922V5.63922H9.1602C9.32993 5.63922 9.49272 5.57179 9.61274 5.45177C9.73277 5.33174 9.8002 5.16896 9.8002 4.99922C9.8002 4.82948 9.73277 4.66669 9.61274 4.54667C9.49272 4.42665 9.32993 4.35922 9.1602 4.35922H5.6402V0.839219C5.6402 0.66948 5.57277 0.506694 5.45274 0.38667C5.33272 0.266647 5.16993 0.199219 5.0002 0.199219C4.83046 0.199219 4.66767 0.266647 4.54765 0.38667C4.42762 0.506694 4.3602 0.66948 4.3602 0.839219V4.35922Z" fill="white"/>
</svg>
