<svg width="8" height="8" viewBox="0 0 8 8" fill="none" xmlns="http://www.w3.org/2000/svg">
<path d="M7.07254 3.25535C6.98766 3.17049 6.88458 3.12808 6.76341 3.12808H4.87248V1.2371C4.87248 1.11593 4.83003 1.01288 4.74521 0.928019C4.66037 0.843226 4.55739 0.800781 4.43605 0.800781H3.5634C3.44222 0.800781 3.33918 0.843178 3.25432 0.928035C3.16946 1.01289 3.12705 1.11595 3.12705 1.23712V3.12809H1.23614C1.11497 3.12809 1.01192 3.1705 0.927058 3.25536C0.842201 3.34022 0.799805 3.44318 0.799805 3.56443V4.43718C0.799805 4.55847 0.842185 4.66144 0.927042 4.74622C1.0119 4.83111 1.11495 4.87349 1.23613 4.87349H3.12704V6.76449C3.12704 6.88567 3.16945 6.9888 3.25431 7.07362C3.33916 7.1584 3.4422 7.20078 3.56339 7.20078H4.43609C4.55736 7.20078 4.66035 7.1584 4.74523 7.07362C4.83011 6.98875 4.8725 6.88567 4.8725 6.76449V4.87349H6.76339C6.88467 4.87349 6.9877 4.83111 7.07252 4.74622C7.15736 4.66144 7.19979 4.55847 7.19979 4.43718V3.56443C7.19976 3.44318 7.15743 3.34016 7.07254 3.25535Z" fill="black"/>
</svg>
