<svg width="19" height="20" viewBox="0 0 19 20" fill="none" xmlns="http://www.w3.org/2000/svg">
<path d="M7.55802 0C6.41369 0 5.31624 0.454582 4.50708 1.26374C3.69792 2.0729 3.24333 3.17036 3.24333 4.31469C3.24333 5.45901 3.69792 6.55647 4.50708 7.36563C5.31624 8.17479 6.41369 8.62937 7.55802 8.62937C8.70235 8.62937 9.7998 8.17479 10.609 7.36563C11.4181 6.55647 11.8727 5.45901 11.8727 4.31469C11.8727 3.17036 11.4181 2.0729 10.609 1.26374C9.7998 0.454582 8.70235 0 7.55802 0ZM7.98714 10.7366C8.23001 10.3842 7.99674 9.84664 7.56954 9.84664H6.42043C4.71763 9.84664 3.08456 10.5231 1.8805 11.7271C0.676436 12.9312 0 14.5643 0 16.2671C0 16.9621 0.276117 17.6288 0.767609 18.1202C1.2591 18.6117 1.92571 18.8879 2.62078 18.8879H7.63194C8.06586 18.8879 8.29817 18.3368 8.04666 17.9845C7.28276 16.9145 6.87319 15.6321 6.87547 14.3173C6.87547 12.9887 7.28634 11.7541 7.98714 10.7366Z" fill="#0F8236"/>
<path fill-rule="evenodd" clip-rule="evenodd" d="M18.0795 14.3186C18.0795 15.6132 17.5652 16.8549 16.6498 17.7704C15.7343 18.6858 14.4926 19.2001 13.198 19.2001C11.9033 19.2001 10.6617 18.6858 9.74618 17.7704C8.83071 16.8549 8.31641 15.6132 8.31641 14.3186C8.31641 13.0239 8.83071 11.7823 9.74618 10.8668C10.6617 9.95132 11.9033 9.43701 13.198 9.43701C14.4926 9.43701 15.7343 9.95132 16.6498 10.8668C17.5652 11.7823 18.0795 13.0239 18.0795 14.3186ZM15.9925 12.4629C16.0637 12.5252 16.122 12.601 16.1639 12.6858C16.2058 12.7706 16.2306 12.8629 16.2368 12.9573C16.2431 13.0517 16.2307 13.1464 16.2003 13.236C16.1699 13.3257 16.1221 13.4084 16.0597 13.4795L13.5925 16.2952C13.4838 16.4191 13.3508 16.5193 13.2017 16.5895C13.0526 16.6597 12.8906 16.6984 12.7259 16.7033C12.5612 16.7081 12.3972 16.679 12.2442 16.6177C12.0912 16.5564 11.9525 16.4643 11.8367 16.347L10.4514 14.9454C10.3849 14.8781 10.3323 14.7984 10.2967 14.7107C10.261 14.6231 10.2429 14.5293 10.2435 14.4346C10.2441 14.34 10.2633 14.2464 10.3 14.1592C10.3368 14.072 10.3903 13.9929 10.4577 13.9264C10.525 13.8599 10.6047 13.8073 10.6924 13.7717C10.78 13.736 10.8739 13.7179 10.9685 13.7185C11.0631 13.7191 11.1567 13.7383 11.2439 13.775C11.3311 13.8118 11.4102 13.8653 11.4767 13.9327L12.3177 14.7851C12.364 14.8321 12.4195 14.869 12.4808 14.8935C12.542 14.918 12.6077 14.9296 12.6736 14.9276C12.7396 14.9257 12.8044 14.9101 12.864 14.882C12.9237 14.8538 12.9769 14.8137 13.0204 14.764L14.9759 12.5311C15.0382 12.4599 15.1139 12.4016 15.1987 12.3597C15.2836 12.3178 15.3758 12.293 15.4703 12.2867C15.5647 12.2805 15.6594 12.2929 15.749 12.3233C15.8386 12.3537 15.9214 12.4005 15.9925 12.4629Z" fill="#0F8236"/>
</svg>
