<svg width="11" height="12" viewBox="0 0 11 12" fill="none" xmlns="http://www.w3.org/2000/svg">
<path d="M6.08388 7.56208C6.55766 7.56208 6.98661 7.36981 7.29721 7.05986C7.60782 6.74925 7.79943 6.32009 7.79943 5.84652C7.79943 5.37296 7.60782 4.9438 7.29721 4.63319C6.98661 4.32324 6.55744 4.13097 6.08388 4.13097C5.61031 4.13097 5.18115 4.32324 4.87098 4.63319C4.56037 4.9438 4.3681 5.37296 4.3681 5.84652C4.3681 6.32009 4.56037 6.74925 4.87098 7.05986C5.18115 7.36981 5.61009 7.56208 6.08388 7.56208ZM5.59413 4.97267C5.68031 4.90333 5.78749 4.85171 5.9067 4.82568V4.61547C5.9067 4.51748 5.9861 4.43808 6.0841 4.43808C6.18275 4.43808 6.26215 4.51748 6.26215 4.61547V4.82568C6.36321 4.84799 6.45617 4.88889 6.53491 4.94358C6.66813 5.03588 6.76131 5.16866 6.78909 5.32046C6.80702 5.41649 6.74315 5.50901 6.64713 5.52695C6.55045 5.54423 6.45792 5.48036 6.44064 5.38433C6.43014 5.32724 6.39099 5.27453 6.33346 5.23494C6.26784 5.18966 6.181 5.16188 6.0841 5.16188C5.97801 5.16188 5.8833 5.19534 5.81614 5.24937C5.76037 5.29399 5.72559 5.35349 5.72559 5.41561C5.72559 5.47752 5.76037 5.53657 5.81614 5.58185C5.88308 5.63588 5.97801 5.66869 6.0841 5.66869H6.08913C6.27396 5.6711 6.44326 5.73431 6.56838 5.83493C6.70662 5.94649 6.79281 6.10288 6.79281 6.27766C6.79281 6.45243 6.70662 6.60948 6.56838 6.72038C6.4822 6.78972 6.37502 6.84134 6.25646 6.86737V7.07758C6.25646 7.17557 6.1764 7.25497 6.07841 7.25497C5.98042 7.25497 5.90036 7.17557 5.90036 7.07758V6.86737C5.7993 6.84506 5.70634 6.80416 5.62825 6.74947C5.49504 6.65716 5.4012 6.52439 5.37342 6.37259C5.35614 6.27656 5.41935 6.18404 5.51604 6.1661C5.61206 6.14882 5.70459 6.21269 5.72187 6.30872C5.73237 6.36581 5.77218 6.41852 5.82905 6.45811C5.89467 6.50339 5.98151 6.53117 6.07841 6.53117C6.1845 6.53117 6.27921 6.4977 6.34636 6.44368C6.40214 6.39905 6.43692 6.33956 6.43692 6.27744C6.43692 6.21553 6.40214 6.15647 6.34636 6.1112C6.27943 6.05717 6.1845 6.02436 6.07841 6.02436H6.07338C5.8892 6.02195 5.71924 5.95874 5.59413 5.85812C5.45588 5.74656 5.3697 5.59016 5.3697 5.41539C5.3697 5.24062 5.45588 5.08357 5.59413 4.97267ZM9.8326 5.84565C9.8326 6.00073 9.75954 6.13329 9.62851 6.21575L9.32644 6.40605C9.13307 6.52811 9.06658 6.77681 9.17267 6.97958L9.33956 7.29763C9.41153 7.43456 9.40781 7.58658 9.33081 7.72045C9.25338 7.85366 9.12301 7.9324 8.9688 7.93809L8.61226 7.95231C8.38412 7.96171 8.20169 8.14326 8.1925 8.37206L8.17763 8.73101C8.17151 8.88544 8.09276 9.01493 7.95867 9.09258C7.82481 9.16958 7.67279 9.17264 7.53651 9.10068L7.22022 8.93444C7.01811 8.82769 6.7694 8.89419 6.64669 9.08755L6.45442 9.39138C6.37196 9.52153 6.23874 9.5948 6.08432 9.5948C6.03029 9.5948 5.97954 9.58605 5.93251 9.56878C5.92201 9.5154 5.90583 9.464 5.88483 9.41566C5.9686 9.29973 6.01869 9.15777 6.01869 9.00399C6.01869 8.61639 5.7024 8.30032 5.31502 8.30032H4.60631C4.6634 7.96368 4.65334 7.58177 4.57087 7.26044C4.5864 7.27728 4.60259 7.29391 4.61921 7.31075C4.99435 7.68588 5.5121 7.91775 6.08366 7.91775C6.65588 7.91775 7.17363 7.68588 7.54811 7.31075C7.92324 6.93627 8.1551 6.41787 8.1551 5.84631C8.1551 5.27453 7.92324 4.75634 7.54811 4.38186C7.17363 4.00673 6.65588 3.77486 6.08366 3.77486C5.51188 3.77486 4.99435 4.00673 4.61921 4.38186C4.24474 4.75634 4.01288 5.27475 4.01288 5.84631C4.01288 6.11295 4.06318 6.36777 4.15484 6.6016C3.71277 6.32315 3.12743 6.66307 3.20245 7.29172C3.20683 7.55836 3.11802 7.73204 2.98787 7.87772C2.92706 7.84053 2.87566 7.78782 2.83782 7.72154C2.76039 7.58702 2.75711 7.43565 2.82907 7.29872L2.99531 6.98308C3.10205 6.78097 3.03556 6.53227 2.84219 6.40955L2.53837 6.21728C2.40822 6.13416 2.33494 6.00161 2.33494 5.84718C2.33494 5.6921 2.40866 5.55954 2.53946 5.47708L2.84088 5.28678C2.93409 5.22817 3.00177 5.13657 3.0304 5.03025C3.05902 4.92393 3.04649 4.81073 2.99531 4.71325L2.82841 4.3952C2.75645 4.25827 2.75951 4.10625 2.83716 3.97304C2.9146 3.83917 3.04431 3.76043 3.19874 3.75474L3.55528 3.74052C3.78408 3.73177 3.96628 3.54957 3.97569 3.32142L3.99056 2.96182C3.99669 2.80739 4.07543 2.6779 4.20952 2.60025C4.34339 2.52347 4.49475 2.52019 4.63168 2.59215L4.94732 2.75839C5.15009 2.86514 5.39879 2.79864 5.52085 2.60528L5.71378 2.30145C5.79624 2.1713 5.92901 2.09803 6.08388 2.09803C6.23831 2.09803 6.37086 2.17108 6.45333 2.30211L6.64363 2.60396C6.70219 2.69722 6.79385 2.7649 6.90021 2.79341C7.00658 2.82193 7.11979 2.80919 7.21716 2.75774L7.53586 2.59084C7.67235 2.51953 7.82415 2.52259 7.95802 2.60025C8.09189 2.67768 8.16997 2.80739 8.17632 2.96182L8.18988 3.31836C8.19414 3.42839 8.23971 3.53277 8.31751 3.61069C8.39531 3.68861 8.49962 3.73434 8.60964 3.73877L8.96858 3.75365C9.12301 3.75977 9.25316 3.83808 9.33016 3.9726C9.40693 4.10647 9.41021 4.25784 9.33825 4.39477L9.17201 4.7104C9.06527 4.91252 9.13176 5.16122 9.32513 5.28393L9.62895 5.4762C9.76019 5.55867 9.83325 5.69122 9.8326 5.84565ZM5.31502 9.35201H5.2413C5.43226 9.35201 5.5891 9.50818 5.5891 9.6998C5.5891 9.89076 5.43226 10.0476 5.2413 10.0476H5.19537C5.38698 10.0476 5.54316 10.2038 5.54316 10.3954C5.54316 10.5863 5.38698 10.7432 5.19537 10.7432H5.05888C5.25049 10.7432 5.40667 10.8994 5.40667 11.091C5.40667 11.2819 5.25049 11.4388 5.05888 11.4388H3.00275C2.945 11.4388 2.896 11.4294 2.84285 11.4097L2.54209 11.2968C2.53027 11.2924 2.51846 11.2887 2.50731 11.285V8.79532C2.56134 8.76732 2.60902 8.72839 2.65058 8.67808C2.9835 8.27319 3.58196 8.09142 3.55768 7.26503C3.49884 6.85775 3.8882 6.70638 4.10453 7.04936C4.3482 7.43434 4.33901 8.26095 4.12378 8.65642H5.3148C5.50641 8.65642 5.66259 8.8126 5.66259 9.00421C5.66281 9.19517 5.50663 9.35201 5.31502 9.35201ZM2.1523 8.74129V11.3703C2.1523 11.4956 2.04927 11.5984 1.92415 11.5984H1.18745C1.06277 11.5984 0.959961 11.4954 0.959961 11.3703V8.74129C0.959961 8.61596 1.06299 8.51381 1.18745 8.51381H1.92415C2.04927 8.51381 2.1523 8.61596 2.1523 8.74129ZM5.90648 1.17495V0.57649C5.90648 0.478495 5.98588 0.398438 6.08388 0.398438C6.18253 0.398438 6.26193 0.478495 6.26193 0.57649V1.17474C6.26193 1.27339 6.18253 1.35279 6.08388 1.35279C5.98588 1.35279 5.90648 1.2736 5.90648 1.17495ZM8.26644 1.71261L8.56523 1.1942C8.58884 1.15366 8.62749 1.12407 8.67279 1.11187C8.71809 1.09966 8.76638 1.10583 8.80716 1.12902C8.82735 1.1406 8.84505 1.15605 8.85926 1.17449C8.87347 1.19292 8.8839 1.21398 8.88995 1.23645C8.89601 1.25893 8.89757 1.28238 8.89455 1.30545C8.89152 1.32853 8.88398 1.35079 8.87234 1.37094L8.57354 1.88935C8.52455 1.97378 8.41671 2.00353 8.33162 1.95453C8.24653 1.90597 8.21744 1.79748 8.26644 1.71261ZM10.7366 3.36495L10.2182 3.6644C10.198 3.67606 10.1758 3.68362 10.1526 3.68665C10.1295 3.68969 10.106 3.68813 10.0835 3.68208C10.061 3.67602 10.0399 3.66559 10.0214 3.65137C10.003 3.63715 9.98748 3.61943 9.97587 3.59922C9.92687 3.51479 9.95596 3.40629 10.0404 3.3573L10.5588 3.05784C10.6437 3.00885 10.7522 3.03794 10.8012 3.12237C10.8502 3.20746 10.8217 3.31595 10.7366 3.36495ZM3.29564 1.37138C3.24664 1.28651 3.27573 1.17802 3.36016 1.12902C3.44503 1.08002 3.55353 1.10911 3.60252 1.19355L3.90198 1.71195C3.95097 1.79682 3.92188 1.90532 3.83745 1.95432C3.75258 2.00331 3.64408 1.97488 3.59509 1.88979L3.29564 1.37138ZM2.19189 3.59922C2.14289 3.68409 2.0344 3.7134 1.94953 3.6644L1.43178 3.36495C1.34691 3.31595 1.3176 3.20746 1.36659 3.12259C1.41625 3.03816 1.52474 3.00907 1.60895 3.05806L2.12736 3.35751C2.14751 3.36911 2.16517 3.38457 2.17933 3.40301C2.19348 3.42144 2.20386 3.4425 2.20985 3.46496C2.21585 3.48742 2.21735 3.51084 2.21426 3.53388C2.21118 3.55692 2.20358 3.57913 2.19189 3.59922Z" fill="#1E293B"/>
</svg>
