<svg width="12" height="12" viewBox="0 0 12 12" fill="none" xmlns="http://www.w3.org/2000/svg">
<path fill-rule="evenodd" clip-rule="evenodd" d="M5.78275 9.32096C5.7716 9.32096 5.76023 9.31943 5.74907 9.31659C5.72105 9.30914 5.69627 9.29265 5.67859 9.26967C5.66091 9.24669 5.65132 9.21851 5.65131 9.18951V6.74189H4.13365C4.08641 6.74189 4.04289 6.71652 4.01948 6.67562C4.00806 6.65542 4.00218 6.63256 4.00245 6.60936C4.00272 6.58616 4.00912 6.56344 4.02101 6.54351L6.21515 2.86868C6.22988 2.84401 6.2523 2.82485 6.27897 2.81414C6.30564 2.80343 6.33508 2.80177 6.36278 2.80941C6.41987 2.82516 6.45924 2.87677 6.45924 2.93583V5.39373H7.86622C7.91281 5.39373 7.95611 5.41867 7.97974 5.45891C7.99125 5.47881 7.99735 5.50137 7.99743 5.52436C7.9975 5.54734 7.99155 5.56995 7.98017 5.58992L5.8967 9.25447C5.8853 9.27465 5.86873 9.29143 5.84871 9.30311C5.8287 9.3148 5.80593 9.32095 5.78275 9.32096Z" fill="#1E293B"/>
<path fill-rule="evenodd" clip-rule="evenodd" d="M10.5244 5.90564C10.4875 5.90564 10.4525 5.89011 10.4276 5.86277L9.48336 4.82847C9.46619 4.80968 9.45486 4.7863 9.45074 4.76118C9.44662 4.73606 9.4499 4.71028 9.46017 4.68699C9.47043 4.66369 9.48725 4.64389 9.50857 4.62998C9.52989 4.61608 9.5548 4.60867 9.58025 4.60866H9.95841C9.42169 2.88914 7.81808 1.70283 5.99991 1.70283C4.12422 1.70283 2.47664 2.96568 1.99351 4.77379C1.98606 4.80173 1.96958 4.82643 1.94663 4.84403C1.92369 4.86164 1.89557 4.87116 1.86665 4.87112H1.08387C1.04407 4.87112 1.00645 4.85319 0.981516 4.82191C0.969223 4.80656 0.960524 4.78865 0.956058 4.7695C0.951592 4.75035 0.951473 4.73044 0.955708 4.71124C1.21073 3.57568 1.85331 2.54772 2.76513 1.81678C3.68001 1.08343 4.82869 0.679688 5.99991 0.679688C7.1709 0.679688 8.31981 1.08343 9.23447 1.81678C10.1189 2.52563 10.7499 3.51378 11.0198 4.60866H11.4686C11.5207 4.60866 11.5677 4.63928 11.5887 4.68696C11.6097 4.73442 11.6007 4.78998 11.5655 4.82847L10.6213 5.86299C10.609 5.87644 10.5941 5.88718 10.5774 5.89452C10.5607 5.90187 10.5427 5.90565 10.5244 5.90564ZM5.99991 11.4435C4.82869 11.4435 3.68001 11.0397 2.76535 10.3064C1.88087 9.59753 1.24988 8.60938 0.979986 7.5145H0.531185C0.479131 7.5145 0.432107 7.48388 0.411111 7.4362C0.400805 7.41294 0.397508 7.38719 0.401627 7.36209C0.405745 7.337 0.417098 7.31365 0.434294 7.29491L1.37848 6.26039C1.39074 6.24687 1.40569 6.23607 1.42238 6.22868C1.43907 6.2213 1.45712 6.2175 1.47537 6.21752C1.49362 6.21754 1.51165 6.22136 1.52834 6.22874C1.54502 6.23612 1.55998 6.2469 1.57226 6.26039L2.51645 7.29491C2.5336 7.31367 2.54492 7.33702 2.54904 7.36211C2.55315 7.38719 2.54989 7.41293 2.53963 7.4362C2.52939 7.4595 2.51258 7.47932 2.49125 7.49322C2.46993 7.50713 2.44502 7.51452 2.41956 7.5145H2.0414C2.57813 9.23381 4.18196 10.4203 5.99991 10.4203C7.8756 10.4203 9.52317 9.15769 10.0063 7.34937C10.0216 7.29206 10.0737 7.25204 10.1329 7.25204H10.9159C10.9557 7.25204 10.9934 7.27019 11.0183 7.30125C11.0432 7.33231 11.0526 7.37321 11.0439 7.41192C10.7891 8.54748 10.1465 9.57544 9.23447 10.3064C8.31981 11.0397 7.17112 11.4435 5.99991 11.4435Z" fill="black"/>
</svg>
