<svg width="7" height="12" viewBox="0 0 7 12" fill="none" xmlns="http://www.w3.org/2000/svg">
<path d="M0.60223 5.66281L6.63973 0.947189C6.65551 0.934768 6.67447 0.92705 6.69443 0.924919C6.7144 0.922788 6.73456 0.926332 6.7526 0.935143C6.77064 0.943955 6.78583 0.957676 6.79643 0.974732C6.80702 0.991787 6.81259 1.01149 6.8125 1.03156V2.06683C6.8125 2.13246 6.7817 2.1954 6.7308 2.23558L1.90937 6.00031L6.7308 9.76505C6.78303 9.80522 6.8125 9.86817 6.8125 9.9338V10.9691C6.8125 11.0588 6.70937 11.1083 6.63973 11.0534L0.60223 6.33781C0.550915 6.29779 0.509404 6.24658 0.480852 6.1881C0.4523 6.12962 0.437459 6.06539 0.437459 6.00031C0.437459 5.93523 0.4523 5.87101 0.480852 5.81253C0.509404 5.75404 0.550915 5.70284 0.60223 5.66281Z" fill="#6B7280" fill-opacity="0.85"/>
</svg>
