<svg width="10" height="10" viewBox="0 0 10 10" fill="none" xmlns="http://www.w3.org/2000/svg">
<path d="M9.65329 8.9433L7.28672 6.56698C7.89542 5.86973 8.22905 4.98709 8.2286 4.07522C8.2286 1.93802 6.42757 0.199219 4.21391 0.199219C2.00024 0.199219 0.199219 1.93802 0.199219 4.07522C0.199219 6.21241 2.00024 7.95121 4.21391 7.95121C5.04495 7.95121 5.83689 7.70921 6.51398 7.24983L8.89853 9.64418C8.9982 9.74411 9.13225 9.79922 9.27591 9.79922C9.41189 9.79922 9.54088 9.74917 9.6388 9.65817C9.73875 9.56514 9.7964 9.43763 9.79912 9.30362C9.80183 9.16961 9.74939 9.04003 9.65329 8.9433ZM4.21391 1.21035C5.85016 1.21035 7.18129 2.49549 7.18129 4.07522C7.18129 5.65494 5.85016 6.94008 4.21391 6.94008C2.57766 6.94008 1.24653 5.65494 1.24653 4.07522C1.24653 2.49549 2.57766 1.21035 4.21391 1.21035Z" fill="#6B7280"/>
</svg>
