<svg width="12" height="12" viewBox="0 0 12 12" fill="none" xmlns="http://www.w3.org/2000/svg">
<path d="M10.9316 4.42638C10.7138 4.39474 10.5059 4.31436 10.3234 4.19123C10.1409 4.06809 9.9886 3.90539 9.87772 3.71521C9.76685 3.52504 9.7003 3.31231 9.68304 3.09285C9.66579 2.8734 9.69826 2.65288 9.77804 2.44771C9.82875 2.31359 9.83622 2.16695 9.7994 2.02836C9.76258 1.88977 9.68331 1.76618 9.5727 1.67491C9.0844 1.26487 8.52858 0.94275 7.93004 0.722915C7.79374 0.672285 7.64494 0.665959 7.50484 0.704839C7.36474 0.743719 7.24048 0.825821 7.14977 0.939449C7.01324 1.11404 6.83874 1.25525 6.63951 1.35236C6.44027 1.44947 6.22155 1.49994 5.99991 1.49994C5.77827 1.49994 5.55954 1.44947 5.36031 1.35236C5.16108 1.25525 4.98658 1.11404 4.85004 0.939449C4.75933 0.825821 4.63507 0.743719 4.49497 0.704839C4.35487 0.665959 4.20607 0.672285 4.06977 0.722915C3.51712 0.925875 3.0004 1.21574 2.53911 1.58158C2.42283 1.67363 2.33908 1.80049 2.30012 1.94358C2.26115 2.08668 2.26902 2.23849 2.32258 2.37678C2.40872 2.58737 2.44432 2.81523 2.4265 3.04206C2.40868 3.26889 2.33795 3.48839 2.21998 3.68296C2.10201 3.87752 1.94009 4.04172 1.74719 4.1624C1.5543 4.28307 1.33581 4.35686 1.10924 4.37785C0.962153 4.39357 0.823998 4.45611 0.71512 4.55625C0.606241 4.65639 0.532391 4.78885 0.504444 4.93411C0.434928 5.27821 0.39991 5.62839 0.39991 5.97944C0.399399 6.27334 0.423124 6.56678 0.470844 6.85678C0.494593 7.0067 0.567069 7.14462 0.677065 7.24922C0.787062 7.35381 0.928452 7.41926 1.07938 7.43544C1.31092 7.45717 1.53388 7.53405 1.72961 7.65963C1.92534 7.78522 2.08814 7.95586 2.20439 8.15728C2.32064 8.3587 2.38694 8.58503 2.39776 8.81734C2.40858 9.04964 2.3636 9.28116 2.26658 9.49251C2.20308 9.62998 2.18733 9.78473 2.22183 9.93218C2.25632 10.0796 2.33909 10.2113 2.45698 10.3064C2.94235 10.709 3.49282 11.0259 4.08471 11.2434C4.1604 11.2697 4.23981 11.2835 4.31991 11.2845C4.42973 11.2843 4.5379 11.2577 4.63533 11.207C4.73277 11.1564 4.81664 11.0831 4.87991 10.9933C5.01297 10.7994 5.19134 10.641 5.39953 10.5317C5.60772 10.4224 5.83944 10.3655 6.07457 10.3661C6.3024 10.3664 6.52701 10.4199 6.73053 10.5223C6.93404 10.6247 7.11084 10.7732 7.24684 10.956C7.3373 11.0776 7.46544 11.1658 7.61129 11.207C7.75715 11.2482 7.91253 11.24 8.05324 11.1837C8.59445 10.9659 9.09831 10.6648 9.54657 10.2914C9.65917 10.1983 9.73935 10.0719 9.77558 9.93039C9.8118 9.78884 9.80221 9.63946 9.74817 9.50371C9.66036 9.29583 9.62208 9.07038 9.63633 8.84517C9.65059 8.61996 9.717 8.40114 9.83032 8.206C9.94365 8.01085 10.1008 7.84472 10.2893 7.72071C10.4779 7.5967 10.6926 7.51821 10.9167 7.49144C11.062 7.47135 11.1971 7.40553 11.3025 7.3035C11.4079 7.20147 11.4781 7.06855 11.5028 6.92398C11.5628 6.61258 11.5953 6.29652 11.5999 5.97944C11.6 5.64499 11.5687 5.31127 11.5066 4.98265C11.4814 4.84126 11.4122 4.71142 11.309 4.61156C11.2058 4.5117 11.0738 4.44691 10.9316 4.42638ZM7.86657 5.97944C7.86657 6.34864 7.75709 6.70954 7.55198 7.01651C7.34687 7.32348 7.05534 7.56274 6.71425 7.70402C6.37316 7.8453 5.99784 7.88227 5.63574 7.81024C5.27364 7.73822 4.94103 7.56043 4.67998 7.29938C4.41892 7.03832 4.24113 6.70571 4.16911 6.34361C4.09708 5.98152 4.13405 5.60619 4.27533 5.2651C4.41662 4.92401 4.65587 4.63248 4.96284 4.42737C5.26981 4.22226 5.63071 4.11278 5.99991 4.11278C6.49498 4.11278 6.96977 4.30945 7.31984 4.65951C7.66991 5.00958 7.86657 5.48437 7.86657 5.97944Z" fill="black"/>
</svg>
