<svg width="16" height="16" viewBox="0 0 16 16" fill="none" xmlns="http://www.w3.org/2000/svg">
<path d="M9.31922 8.00091L14.9265 2.39354C15.2914 2.02879 15.2914 1.43904 14.9265 1.07434C14.5618 0.709596 13.972 0.709596 13.6073 1.07434L7.99989 6.68167L2.39269 1.07434C2.02777 0.709596 1.43824 0.709596 1.07349 1.07434C0.708575 1.43908 0.708575 2.02879 1.07349 2.39354L6.68065 8.00091L1.07354 13.6082C0.708619 13.973 0.708619 14.5627 1.07354 14.9274C1.16006 15.0142 1.26287 15.083 1.37606 15.1299C1.48926 15.1768 1.61061 15.2009 1.73314 15.2008C1.97192 15.2008 2.2108 15.1094 2.39273 14.9274L7.99989 9.32011L13.6073 14.9274C13.6938 15.0142 13.7967 15.083 13.9098 15.1299C14.023 15.1768 14.1444 15.2009 14.2669 15.2008C14.5057 15.2008 14.7446 15.1094 14.9265 14.9274C15.2914 14.5627 15.2914 13.973 14.9265 13.6082L9.31922 8.00091Z" fill="#999999"/>
</svg>
