<svg width="12" height="14" viewBox="0 0 12 14" fill="none" xmlns="http://www.w3.org/2000/svg">
<path d="M3.19412 12.642C3.19958 12.7706 3.25397 12.8923 3.34616 12.9821C3.43835 13.072 3.56139 13.1233 3.69012 13.1255C3.79699 13.1255 3.90108 13.0914 3.98712 13.028L11.6071 7.40296C11.6693 7.35586 11.7197 7.29502 11.7544 7.22518C11.7891 7.15535 11.8071 7.07843 11.8071 7.00046C11.8071 6.92248 11.7891 6.84556 11.7544 6.77573C11.7197 6.7059 11.6693 6.64505 11.6071 6.59796L3.98712 0.972957C3.9133 0.922095 3.82727 0.89182 3.73787 0.885247C3.64847 0.878673 3.55893 0.896039 3.47847 0.935556C3.39801 0.975074 3.32953 1.03532 3.28008 1.11009C3.23063 1.18485 3.20199 1.27145 3.19712 1.36096L10.2921 6.59796C10.3552 6.64443 10.4064 6.70506 10.4418 6.77498C10.4771 6.84489 10.4955 6.92213 10.4955 7.00046C10.4955 7.07879 10.4771 7.15602 10.4418 7.22594C10.4064 7.29585 10.3552 7.35649 10.2921 7.40296L3.19412 12.642ZM2.76312 7.00046L0.237119 1.58696C0.193428 1.4864 0.183753 1.37433 0.209563 1.26778C0.235373 1.16123 0.295259 1.06601 0.38012 0.99659C0.464981 0.927174 0.570181 0.887353 0.679738 0.883178C0.789294 0.879003 0.89722 0.910701 0.987119 0.973457L3.98112 3.18346V3.18246L9.15312 7.00046L3.98012 10.8185L3.98062 10.8175L0.986617 13.0275C0.900725 13.0912 0.796578 13.1256 0.689618 13.1255C0.605973 13.1242 0.52394 13.1023 0.450889 13.0615C0.377836 13.0208 0.316054 12.9625 0.271092 12.8919C0.22613 12.8214 0.199394 12.7408 0.19329 12.6574C0.187184 12.5739 0.201901 12.4903 0.236117 12.414L2.76312 7.00046Z" fill="#126F77"/>
</svg>
