<svg width="21" height="20" viewBox="0 0 21 20" fill="none" xmlns="http://www.w3.org/2000/svg">
<path d="M16.1004 9.99792C15.658 9.99792 15.3004 10.3564 15.3004 10.7979V17.1982C15.3004 17.6389 14.9419 17.9981 14.5004 17.9981H3.29998C2.85833 17.9981 2.50001 17.6389 2.50001 17.1982V5.99774C2.50001 5.55695 2.85833 5.19776 3.29998 5.19776H9.70024C10.1426 5.19776 10.5002 4.83932 10.5002 4.39778C10.5002 3.95613 10.1426 3.59766 9.70024 3.59766H3.29998C1.97675 3.59766 0.899902 4.6745 0.899902 5.99774V17.1982C0.899902 18.5214 1.97675 19.5982 3.29998 19.5982H14.5004C15.8236 19.5982 16.9005 18.5214 16.9005 17.1982V10.7979C16.9005 10.3555 16.5427 9.99792 16.1004 9.99792Z" fill="#6B7280"/>
<path d="M8.40073 9.26931C8.34513 9.32517 8.30704 9.39605 8.29115 9.47324L7.72556 12.3023C7.6992 12.4334 7.74078 12.5686 7.83514 12.6638C7.87237 12.7009 7.91656 12.7303 7.96516 12.7503C8.01377 12.7704 8.06585 12.7806 8.11842 12.7806C8.14392 12.7806 8.17044 12.7782 8.1968 12.7726L11.0249 12.207C11.1033 12.1909 11.1745 12.1534 11.2297 12.0973L17.5595 5.76748L14.7314 2.93951L8.40073 9.26931ZM19.5147 0.983485C18.7348 0.203422 17.4659 0.203422 16.6866 0.983485L15.5794 2.09063L18.4075 4.91875L19.5147 3.81145C19.8924 3.43468 20.1004 2.9322 20.1004 2.39781C20.1004 1.86341 19.8924 1.36097 19.5147 0.983485Z" fill="#6B7280"/>
</svg>
