<svg width="16" height="16" viewBox="0 0 16 16" fill="none" xmlns="http://www.w3.org/2000/svg">
<path d="M13.0408 0.800781H2.96078C1.77278 0.800781 0.800781 1.77278 0.800781 2.96078V13.0408C0.800781 14.2288 1.77278 15.2008 2.96078 15.2008H13.0408C14.2288 15.2008 15.2008 14.2288 15.2008 13.0408V2.96078C15.2008 1.77278 14.2288 0.800781 13.0408 0.800781ZM11.212 6.71198L7.61198 10.312C7.46798 10.4488 7.28798 10.5208 7.10078 10.5208C6.91358 10.5208 6.73358 10.4488 6.58958 10.312L4.78958 8.51198C4.50878 8.23118 4.50878 7.77038 4.78958 7.48958C5.07038 7.20878 5.53118 7.20878 5.81198 7.48958L7.10078 8.78558L10.1896 5.68958C10.4704 5.40878 10.9312 5.40878 11.212 5.68958C11.4928 5.97038 11.4928 6.43118 11.212 6.71198Z" fill="#126F77"/>
</svg>
