<svg width="17" height="20" viewBox="0 0 17 20" fill="none" xmlns="http://www.w3.org/2000/svg">
<path d="M15.3714 2.79839H11.7335V2.3984C11.7335 1.29562 10.8269 0.398438 9.71246 0.398438H7.28719C6.17278 0.398438 5.26614 1.29562 5.26614 2.3984V2.79839H1.62825C1.41384 2.79839 1.20821 2.88267 1.05661 3.0327C0.904997 3.18272 0.819824 3.3862 0.819824 3.59837V4.79835C0.819824 5.01051 0.904997 5.21399 1.05661 5.36402C1.20821 5.51405 1.41384 5.59833 1.62825 5.59833H15.3714C15.5858 5.59833 15.7914 5.51405 15.943 5.36402C16.0947 5.21399 16.1798 5.01051 16.1798 4.79835V3.59837C16.1798 3.3862 16.0947 3.18272 15.943 3.0327C15.7914 2.88267 15.5858 2.79839 15.3714 2.79839ZM6.88298 2.3984C6.88298 2.178 7.06447 1.9984 7.28719 1.9984H9.71246C9.93518 1.9984 10.1167 2.178 10.1167 2.3984V2.79839H6.88298V2.3984ZM15.0804 6.66031C15.0046 6.57782 14.9122 6.5119 14.8092 6.46679C14.7062 6.42167 14.5948 6.39835 14.4821 6.39831H2.51751C2.40485 6.39837 2.29344 6.42171 2.19043 6.46684C2.08742 6.51198 1.99507 6.57791 1.9193 6.66042C1.84354 6.74293 1.78602 6.84019 1.75045 6.94597C1.71488 7.05175 1.70203 7.16371 1.71273 7.27469L2.70627 17.5497C2.81905 18.7177 3.85747 19.5984 5.12184 19.5984H11.8778C13.1418 19.5984 14.1806 18.7177 14.2934 17.5497L15.2869 7.27469C15.2977 7.1637 15.2848 7.0517 15.2493 6.9459C15.2137 6.84009 15.1562 6.74282 15.0804 6.66031ZM6.61054 17.5965C6.59316 17.5973 6.57619 17.5981 6.55881 17.5981C6.35336 17.5979 6.15569 17.5203 6.00599 17.381C5.85628 17.2418 5.76575 17.0514 5.75281 16.8485L5.26776 9.24865C5.25436 9.03694 5.32645 8.82862 5.46818 8.66946C5.60991 8.51031 5.80969 8.41334 6.02363 8.39987C6.23748 8.38704 6.44776 8.45853 6.60849 8.5987C6.76922 8.73886 6.86733 8.93631 6.88137 9.14786L7.36642 16.7477C7.37981 16.9594 7.30773 17.1677 7.16599 17.3269C7.02426 17.486 6.82448 17.583 6.61054 17.5965ZM11.2468 16.8485C11.2407 16.9537 11.2136 17.0567 11.1671 17.1515C11.1206 17.2464 11.0556 17.3312 10.9758 17.4011C10.8961 17.471 10.8032 17.5246 10.7025 17.5588C10.6017 17.5931 10.4951 17.6073 10.3888 17.6006C10.2825 17.594 10.1786 17.5666 10.083 17.5201C9.98743 17.4736 9.90208 17.4089 9.83187 17.3296C9.76165 17.2503 9.70795 17.1581 9.67387 17.0583C9.63978 16.9584 9.62597 16.8529 9.63323 16.7477L10.1183 9.14786C10.1329 8.9369 10.2312 8.74023 10.3919 8.60084C10.5526 8.46146 10.7625 8.39069 10.9758 8.40401C11.189 8.41733 11.3883 8.51366 11.53 8.67193C11.6716 8.83021 11.7442 9.03756 11.7319 9.24865L11.2468 16.8485Z" fill="#6B7280"/>
</svg>
