<svg width="33" height="25" viewBox="0 0 33 25" fill="none" xmlns="http://www.w3.org/2000/svg">
<path d="M25.8986 24.5864L19.0332 24.6333L18.9843 17.4827L21.2531 17.4672C21.8285 17.4632 22.1639 16.7869 21.8206 16.304L17.3641 10.0395C17.0802 9.63702 16.4983 9.641 16.2199 10.0473L11.8494 16.3722C11.5128 16.8597 11.8508 17.5314 12.4328 17.5274L14.7016 17.5119L14.7505 24.6626L7.06124 24.7151C3.6272 24.5431 0.871511 21.2527 0.847007 17.6673C0.830104 15.1939 2.11652 13.0283 4.0374 11.8492C3.8575 11.3584 3.76237 10.8334 3.75859 10.2807C3.74132 7.75341 5.70852 5.6978 8.16044 5.68104C8.69006 5.67742 9.2007 5.76829 9.67925 5.947C11.0769 2.83712 14.1222 0.666298 17.6792 0.641989C22.2823 0.617271 26.0994 4.22396 26.5626 8.85106C30.1042 9.45366 32.8146 12.8118 32.8407 16.6331C32.8686 20.7173 29.8066 24.2766 25.8986 24.5864Z" fill="#1E293B"/>
</svg>
