<svg width="10" height="8" viewBox="0 0 10 8" fill="none" xmlns="http://www.w3.org/2000/svg">
<path d="M7.7013 7.59844H5.64163V5.4532H6.3223C6.49492 5.4532 6.59693 5.25101 6.49492 5.10543L5.17085 3.21697C5.0865 3.09566 4.91192 3.09566 4.82758 3.21697L3.50351 5.10543C3.4015 5.25101 3.50154 5.4532 3.67613 5.4532H4.3568V7.59844H2.04997C1.02014 7.5398 0.200195 6.54705 0.200195 5.47139C0.200195 4.72936 0.590551 4.08235 1.16922 3.73256C1.11626 3.58496 1.08879 3.42725 1.08879 3.26145C1.08879 2.50324 1.68315 1.8906 2.41875 1.8906C2.57764 1.8906 2.73064 1.91891 2.87384 1.9735C3.2995 1.04342 4.21752 0.398438 5.28463 0.398438C6.66558 0.400459 7.8033 1.49027 7.93277 2.87931C8.99398 3.06735 9.8002 4.08032 9.8002 5.22674C9.8002 6.45202 8.87433 7.51352 7.7013 7.59844Z" fill="white"/>
</svg>
