<svg width="16" height="16" viewBox="0 0 16 16" fill="none" xmlns="http://www.w3.org/2000/svg">
<path d="M15.3676 6.96293C15.2048 6.96293 15.0486 7.02777 14.9335 7.1432C14.8183 7.25863 14.7536 7.41519 14.7536 7.57843V9.3757L11.471 6.08481C11.1971 5.82388 10.8337 5.67838 10.4559 5.67838C10.078 5.67838 9.71465 5.82388 9.44078 6.08481L5.54413 9.99038L4.92197 9.36749C4.6481 9.10656 4.28471 8.96106 3.90688 8.96106C3.52905 8.96106 3.16566 9.10656 2.89179 9.36749L1.24635 11.0162V4.29575C1.24635 3.00155 1.79729 2.44924 3.08826 2.44924H9.63725C9.80008 2.44924 9.95625 2.38439 10.0714 2.26896C10.1865 2.15353 10.2512 1.99697 10.2512 1.83373C10.2512 1.67049 10.1865 1.51393 10.0714 1.39851C9.95625 1.28308 9.80008 1.21823 9.63725 1.21823H3.08826C2.67349 1.17004 2.25323 1.21649 1.8589 1.35411C1.46457 1.49172 1.10639 1.71695 0.81114 2.01293C0.515895 2.30892 0.291231 2.668 0.153955 3.06331C0.0166786 3.45863 -0.029656 3.87994 0.0184169 4.29575V12.5025C-0.029656 12.9183 0.0166786 13.3396 0.153955 13.7349C0.291231 14.1302 0.515895 14.4893 0.81114 14.7853C1.10639 15.0813 1.46457 15.3065 1.8589 15.4441C2.25323 15.5817 2.67349 15.6282 3.08826 15.58H12.9117C13.3265 15.6282 13.7468 15.5817 14.1411 15.4441C14.5354 15.3065 14.8936 15.0813 15.1889 14.7853C15.4841 14.4893 15.7088 14.1302 15.846 13.7349C15.9833 13.3396 16.0297 12.9183 15.9816 12.5025V7.57843C15.9816 7.41519 15.9169 7.25863 15.8018 7.1432C15.6866 7.02777 15.5304 6.96293 15.3676 6.96293ZM12.9117 14.349H3.08826C1.88324 14.349 1.32985 13.8566 1.26027 12.7429L3.75953 10.2374C3.77591 10.2134 3.79789 10.1937 3.82357 10.1801C3.84925 10.1665 3.87784 10.1594 3.90688 10.1594C3.93592 10.1594 3.96451 10.1665 3.99019 10.1801C4.01587 10.1937 4.03785 10.2134 4.05423 10.2374L4.82292 11.0088C5.01776 11.1934 5.27566 11.2962 5.54372 11.2962C5.81178 11.2962 6.06968 11.1934 6.26452 11.0088L10.3085 6.95472C10.3249 6.93069 10.3469 6.91102 10.3726 6.89743C10.3982 6.88384 10.4268 6.87674 10.4559 6.87674C10.4849 6.87674 10.5135 6.88384 10.5392 6.89743C10.5649 6.91102 10.5868 6.93069 10.6032 6.95472L14.7536 11.1163V12.5025C14.7536 13.7967 14.2027 14.349 12.9117 14.349ZM12.4779 2.67902C12.4208 2.62193 12.3756 2.55413 12.3447 2.4795C12.3139 2.40486 12.298 2.32486 12.298 2.24407C12.298 2.16327 12.3139 2.08327 12.3447 2.00864C12.3756 1.934 12.4208 1.8662 12.4779 1.80911L13.7058 0.578105C13.821 0.463042 13.977 0.398438 14.1397 0.398438C14.3023 0.398438 14.4583 0.463042 14.5736 0.578105L15.8015 1.80911C15.8618 1.86546 15.9102 1.93341 15.9437 2.00891C15.9773 2.08442 15.9953 2.16592 15.9968 2.24856C15.9983 2.33121 15.9831 2.4133 15.9522 2.48994C15.9213 2.56658 15.8754 2.6362 15.8171 2.69465C15.7588 2.75309 15.6893 2.79917 15.6129 2.83013C15.5364 2.86108 15.4545 2.87629 15.3721 2.87483C15.2897 2.87337 15.2084 2.85528 15.133 2.82164C15.0577 2.788 14.99 2.7395 14.9337 2.67902L14.7536 2.4993V4.29575C14.7536 4.45899 14.689 4.61554 14.5738 4.73097C14.4587 4.8464 14.3025 4.91125 14.1397 4.91125C13.9768 4.91125 13.8207 4.8464 13.7055 4.73097C13.5904 4.61554 13.5257 4.45899 13.5257 4.29575V2.4993L13.3456 2.67902C13.2887 2.73619 13.221 2.78155 13.1466 2.8125C13.0721 2.84344 12.9923 2.85937 12.9117 2.85937C12.8312 2.85937 12.7513 2.84344 12.6769 2.8125C12.6025 2.78155 12.5348 2.73619 12.4779 2.67902ZM4.7255 4.91125C4.92789 4.91125 5.12573 4.97141 5.29401 5.08413C5.46229 5.19685 5.59344 5.35707 5.67089 5.54452C5.74834 5.73196 5.76861 5.93823 5.72912 6.13722C5.68964 6.33621 5.59218 6.519 5.44907 6.66247C5.30596 6.80593 5.12363 6.90363 4.92514 6.94322C4.72664 6.9828 4.52089 6.96248 4.33391 6.88484C4.14693 6.8072 3.98712 6.67571 3.87468 6.50701C3.76224 6.33832 3.70222 6.13998 3.70222 5.93709C3.70222 5.66502 3.81003 5.40409 4.00194 5.21171C4.19384 5.01933 4.45411 4.91125 4.7255 4.91125Z" fill="#999999"/>
</svg>
